<svg width="110" height="50" viewBox="0 0 110 50" fill="none" xmlns="http://www.w3.org/2000/svg">
<path d="M83.0045 -0.0010376V9.91463H91.0883L91.0883 49.9948H101.851L101.851 9.91463L110 9.91463V-0.0010376L83.0045 -0.0010376ZM0.00011309 5.20521L0.00011309 44.7927C-0.00448321 45.4727 0.131067 46.1469 0.39901 46.7767C0.666953 47.4066 1.06203 47.9797 1.56164 48.4632C2.06124 48.9468 2.65557 49.3313 3.31062 49.5948C3.96567 49.8584 4.66859 49.9957 5.37915 49.999H21.0255V40.6177H10.8236L10.8236 29.6979L19.4593 29.6979V19.7739L10.8236 19.7739L10.8236 9.39275L21.0255 9.39275V-0.0010376L5.37915 -0.0010376C4.66867 0.00251558 3.96589 0.14003 3.31097 0.403645C2.65605 0.66726 2.06183 1.05181 1.56228 1.53531C1.06273 2.01881 0.667647 2.59179 0.399601 3.22149C0.131555 3.85119 -0.00419567 4.52527 0.00011309 5.20521ZM50.2721 -0.0010376L43.3356 14.3339L36.3992 -0.0010376L26.0752 -0.0010376L38.0177 25.3225L26.0752 50.0011H37.0274L43.3531 36.6034L49.6788 50.0011H60.6201L48.6536 25.3267L60.5961 -0.0010376L50.2721 -0.0010376ZM65.9992 50.0011L76.7594 50.0011L76.7594 -0.0010376L65.9992 -0.0010376L65.9992 50.0011Z" fill="#FF6719"/>
</svg>
