<svg width="2007" height="103" viewBox="0 0 2007 103" fill="none" xmlns="http://www.w3.org/2000/svg">
<g clip-path="url(#clip0_1301_4669)">
<circle cx="23.6298" cy="4.62984" r="4.62984" fill="#CCCCCC"/>
<circle cx="163.683" cy="4.62984" r="4.62984" fill="#CCCCCC"/>
<circle cx="303.735" cy="4.62984" r="4.62984" fill="#CCCCCC"/>
<circle cx="443.788" cy="4.62984" r="4.62984" fill="#CCCCCC"/>
<circle cx="583.841" cy="4.62984" r="4.62984" fill="#CCCCCC"/>
<circle cx="723.895" cy="4.62984" r="4.62984" fill="#CCCCCC"/>
<circle cx="863.946" cy="4.62984" r="4.62984" fill="#CCCCCC"/>
<circle cx="1004" cy="4.62984" r="4.62984" fill="#FF6719"/>
<circle cx="1144.05" cy="4.62984" r="4.62984" fill="#CCCCCC"/>
<circle cx="1285.26" cy="4.62984" r="4.62984" fill="#CCCCCC"/>
<circle cx="1424.16" cy="4.62984" r="4.62984" fill="#CCCCCC"/>
<circle cx="1564.21" cy="4.62984" r="4.62984" fill="#CCCCCC"/>
<circle cx="1704.26" cy="4.62984" r="4.62984" fill="#CCCCCC"/>
<circle cx="1845.47" cy="4.62984" r="4.62984" fill="#CCCCCC"/>
<circle cx="71.0849" cy="4.62984" r="4.62984" fill="#CCCCCC"/>
<circle cx="209.981" cy="4.62984" r="4.62984" fill="#CCCCCC"/>
<circle cx="350.034" cy="4.62984" r="4.62984" fill="#CCCCCC"/>
<circle cx="491.245" cy="4.62984" r="4.62984" fill="#CCCCCC"/>
<circle cx="631.298" cy="4.62984" r="4.62984" fill="#CCCCCC"/>
<circle cx="770.19" cy="4.62984" r="4.62984" fill="#CCCCCC"/>
<circle cx="910.245" cy="4.62984" r="4.62984" fill="#CCCCCC"/>
<circle cx="1051.45" cy="4.62984" r="4.62984" fill="#FF6719"/>
<circle cx="1191.51" cy="4.62984" r="4.62984" fill="#CCCCCC"/>
<circle cx="1330.4" cy="4.62984" r="4.62984" fill="#CCCCCC"/>
<circle cx="1471.61" cy="4.62984" r="4.62984" fill="#CCCCCC"/>
<circle cx="1611.67" cy="4.62984" r="4.62984" fill="#CCCCCC"/>
<circle cx="1751.72" cy="4.62984" r="4.62984" fill="#CCCCCC"/>
<circle cx="1891.77" cy="4.62984" r="4.62984" fill="#CCCCCC"/>
<circle cx="117.384" cy="4.62984" r="4.62984" fill="#CCCCCC"/>
<circle cx="257.436" cy="4.62984" r="4.62984" fill="#CCCCCC"/>
<circle cx="397.491" cy="4.62984" r="4.62984" fill="#CCCCCC"/>
<circle cx="536.386" cy="4.62984" r="4.62984" fill="#CCCCCC"/>
<circle cx="677.597" cy="4.62984" r="4.62984" fill="#CCCCCC"/>
<circle cx="817.647" cy="4.62984" r="4.62984" fill="#CCCCCC"/>
<circle cx="957.7" cy="4.62984" r="4.62984" fill="#FF6719"/>
<circle cx="1097.75" cy="4.62984" r="4.62984" fill="#CCCCCC"/>
<circle cx="1237.81" cy="4.62984" r="4.62984" fill="#CCCCCC"/>
<circle cx="1377.86" cy="4.62984" r="4.62984" fill="#CCCCCC"/>
<circle cx="1517.91" cy="4.62984" r="4.62984" fill="#CCCCCC"/>
<circle cx="1657.97" cy="4.62984" r="4.62984" fill="#CCCCCC"/>
<circle cx="1798.02" cy="4.62984" r="4.62984" fill="#CCCCCC"/>
<circle cx="1938.07" cy="4.62984" r="4.62984" fill="#CCCCCC"/>
<circle cx="1984.37" cy="4.62984" r="4.62984" fill="#CCCCCC"/>
<circle cx="23.6298" cy="52.0859" r="4.62984" fill="#CCCCCC"/>
<circle cx="163.683" cy="52.0859" r="4.62984" fill="#CCCCCC"/>
<circle cx="303.735" cy="52.0859" r="4.62984" fill="#CCCCCC"/>
<circle cx="443.788" cy="52.0859" r="4.62984" fill="#CCCCCC"/>
<circle cx="583.841" cy="52.0859" r="4.62984" fill="#CCCCCC"/>
<circle cx="723.895" cy="52.0859" r="4.62984" fill="#CCCCCC"/>
<circle cx="863.946" cy="52.0859" r="4.62984" fill="#CCCCCC"/>
<circle cx="1004" cy="52.0859" r="4.62984" fill="#FF6719"/>
<circle cx="1144.05" cy="52.0859" r="4.62984" fill="#CCCCCC"/>
<circle cx="1285.26" cy="52.0859" r="4.62984" fill="#CCCCCC"/>
<circle cx="1424.16" cy="52.0859" r="4.62984" fill="#CCCCCC"/>
<circle cx="1564.21" cy="52.0859" r="4.62984" fill="#CCCCCC"/>
<circle cx="1704.26" cy="52.0859" r="4.62984" fill="#CCCCCC"/>
<circle cx="1845.47" cy="52.0859" r="4.62984" fill="#CCCCCC"/>
<circle cx="71.0849" cy="52.0859" r="4.62984" fill="#CCCCCC"/>
<circle cx="209.981" cy="52.0859" r="4.62984" fill="#CCCCCC"/>
<circle cx="350.034" cy="52.0859" r="4.62984" fill="#CCCCCC"/>
<circle cx="491.245" cy="52.0859" r="4.62984" fill="#CCCCCC"/>
<circle cx="631.298" cy="52.0859" r="4.62984" fill="#CCCCCC"/>
<circle cx="770.19" cy="52.0859" r="4.62984" fill="#CCCCCC"/>
<circle cx="910.245" cy="52.0859" r="4.62984" fill="#CCCCCC"/>
<circle cx="1051.45" cy="52.0859" r="4.62984" fill="#CCCCCC"/>
<circle cx="1191.51" cy="52.0859" r="4.62984" fill="#CCCCCC"/>
<circle cx="1330.4" cy="52.0859" r="4.62984" fill="#CCCCCC"/>
<circle cx="1471.61" cy="52.0859" r="4.62984" fill="#CCCCCC"/>
<circle cx="1611.67" cy="52.0859" r="4.62984" fill="#CCCCCC"/>
<circle cx="1751.72" cy="52.0859" r="4.62984" fill="#CCCCCC"/>
<circle cx="1891.77" cy="52.0859" r="4.62984" fill="#CCCCCC"/>
<circle cx="117.384" cy="52.0859" r="4.62984" fill="#CCCCCC"/>
<circle cx="257.436" cy="52.0859" r="4.62984" fill="#CCCCCC"/>
<circle cx="397.491" cy="52.0859" r="4.62984" fill="#CCCCCC"/>
<circle cx="536.386" cy="52.0859" r="4.62984" fill="#CCCCCC"/>
<circle cx="677.597" cy="52.0859" r="4.62984" fill="#CCCCCC"/>
<circle cx="817.647" cy="52.0859" r="4.62984" fill="#CCCCCC"/>
<circle cx="957.7" cy="52.0859" r="4.62984" fill="#FF6719"/>
<circle cx="1097.75" cy="52.0859" r="4.62984" fill="#CCCCCC"/>
<circle cx="1237.81" cy="52.0859" r="4.62984" fill="#CCCCCC"/>
<circle cx="1377.86" cy="52.0859" r="4.62984" fill="#CCCCCC"/>
<circle cx="1517.91" cy="52.0859" r="4.62984" fill="#CCCCCC"/>
<circle cx="1657.97" cy="52.0859" r="4.62984" fill="#CCCCCC"/>
<circle cx="1798.02" cy="52.0859" r="4.62984" fill="#CCCCCC"/>
<circle cx="1938.07" cy="52.0859" r="4.62984" fill="#CCCCCC"/>
<circle cx="1984.37" cy="52.0859" r="4.62984" fill="#CCCCCC"/>
<circle cx="23.6298" cy="98.3847" r="4.62984" fill="#CCCCCC"/>
<circle cx="163.683" cy="98.3847" r="4.62984" fill="#CCCCCC"/>
<circle cx="303.735" cy="98.3847" r="4.62984" fill="#CCCCCC"/>
<circle cx="443.788" cy="98.3847" r="4.62984" fill="#CCCCCC"/>
<circle cx="583.841" cy="98.3847" r="4.62984" fill="#CCCCCC"/>
<circle cx="723.895" cy="98.3847" r="4.62984" fill="#CCCCCC"/>
<circle cx="863.946" cy="98.3847" r="4.62984" fill="#CCCCCC"/>
<circle cx="1004" cy="98.3847" r="4.62984" fill="#FF6719"/>
<circle cx="1144.05" cy="98.3847" r="4.62984" fill="#CCCCCC"/>
<circle cx="1285.26" cy="98.3847" r="4.62984" fill="#CCCCCC"/>
<circle cx="1424.16" cy="98.3847" r="4.62984" fill="#CCCCCC"/>
<circle cx="1564.21" cy="98.3847" r="4.62984" fill="#CCCCCC"/>
<circle cx="1704.26" cy="98.3847" r="4.62984" fill="#CCCCCC"/>
<circle cx="1845.47" cy="98.3847" r="4.62984" fill="#CCCCCC"/>
<circle cx="71.0849" cy="98.3847" r="4.62984" fill="#CCCCCC"/>
<circle cx="209.981" cy="98.3847" r="4.62984" fill="#CCCCCC"/>
<circle cx="350.034" cy="98.3847" r="4.62984" fill="#CCCCCC"/>
<circle cx="491.245" cy="98.3847" r="4.62984" fill="#CCCCCC"/>
<circle cx="631.298" cy="98.3847" r="4.62984" fill="#CCCCCC"/>
<circle cx="770.19" cy="98.3847" r="4.62984" fill="#CCCCCC"/>
<circle cx="910.245" cy="98.3847" r="4.62984" fill="#CCCCCC"/>
<circle cx="1051.45" cy="98.3847" r="4.62984" fill="#FF6719"/>
<circle cx="1191.51" cy="98.3847" r="4.62984" fill="#CCCCCC"/>
<circle cx="1330.4" cy="98.3847" r="4.62984" fill="#CCCCCC"/>
<circle cx="1471.61" cy="98.3847" r="4.62984" fill="#CCCCCC"/>
<circle cx="1611.67" cy="98.3847" r="4.62984" fill="#CCCCCC"/>
<circle cx="1751.72" cy="98.3847" r="4.62984" fill="#CCCCCC"/>
<circle cx="1891.77" cy="98.3847" r="4.62984" fill="#CCCCCC"/>
<circle cx="117.384" cy="98.3847" r="4.62984" fill="#CCCCCC"/>
<circle cx="257.436" cy="98.3847" r="4.62984" fill="#CCCCCC"/>
<circle cx="397.491" cy="98.3847" r="4.62984" fill="#CCCCCC"/>
<circle cx="536.386" cy="98.3847" r="4.62984" fill="#CCCCCC"/>
<circle cx="677.597" cy="98.3847" r="4.62984" fill="#CCCCCC"/>
<circle cx="817.647" cy="98.3847" r="4.62984" fill="#CCCCCC"/>
<circle cx="957.7" cy="98.3847" r="4.62984" fill="#FF6719"/>
<circle cx="1097.75" cy="98.3847" r="4.62984" fill="#CCCCCC"/>
<circle cx="1237.81" cy="98.3847" r="4.62984" fill="#CCCCCC"/>
<circle cx="1377.86" cy="98.3847" r="4.62984" fill="#CCCCCC"/>
<circle cx="1517.91" cy="98.3847" r="4.62984" fill="#CCCCCC"/>
<circle cx="1657.97" cy="98.3847" r="4.62984" fill="#CCCCCC"/>
<circle cx="1798.02" cy="98.3847" r="4.62984" fill="#CCCCCC"/>
<circle cx="1938.07" cy="98.3847" r="4.62984" fill="#CCCCCC"/>
<circle cx="1984.37" cy="98.3847" r="4.62984" fill="#CCCCCC"/>
</g>
<defs>
<clipPath id="clip0_1301_4669">
<rect width="2007" height="103" fill="white"/>
</clipPath>
</defs>
</svg>
