<svg width="446" height="106" viewBox="0 0 446 106" fill="none" xmlns="http://www.w3.org/2000/svg">
<path d="M98.1325 103.83H82.064L80.7728 92.2138C78.1903 96.1337 74.3167 99.4322 69.1518 102.109C64.0826 104.691 57.9613 105.981 50.7879 105.981C36.6324 105.981 24.6287 101.153 14.7773 91.4967C4.92576 81.8403 0 69.0289 0 53.0624C0 37.1915 5.06923 24.38 15.2077 14.628C25.4418 4.876 37.7322 0 52.0791 0C64.513 0 74.6515 3.01165 82.4944 9.03494C90.4331 15.0582 95.7891 22.4678 98.5629 31.2638L79.625 38.0041C78.0948 32.7457 74.9862 28.2043 70.2996 24.38C65.7086 20.46 59.635 18.5001 52.0791 18.5001C43.471 18.5001 35.9627 21.4639 29.5545 27.3916C23.2419 33.3194 20.0856 41.8762 20.0856 53.0624C20.0856 64.0572 23.1463 72.6142 29.2676 78.7331C35.4846 84.8519 43.1362 87.9114 52.2225 87.9114C60.6393 87.9114 67.0954 85.8081 71.5908 81.6013C76.0862 77.2989 78.7163 72.8053 79.4816 68.1206H47.3446V50.9112H98.1325V103.83Z" fill="#FF6719"/>
<path d="M133.374 48.4731H149.012C153.89 48.4731 157.763 47.1824 160.633 44.601C163.502 41.924 164.937 38.3864 164.937 33.9885C164.937 29.4949 163.502 25.9575 160.633 23.3761C157.859 20.6991 153.985 19.3605 149.012 19.3605H133.374V48.4731ZM151.451 65.5391H133.23V103.83H113.432V2.15112H151.451C161.398 2.15112 169.433 5.11496 175.554 11.0427C181.771 16.9704 184.879 24.5712 184.879 33.8451C184.879 43.119 181.771 50.7199 175.554 56.6476C169.433 62.5753 161.398 65.5391 151.451 65.5391Z" fill="#FF6719"/>
<path d="M264.195 26.3878L246.405 31.8374C245.736 28.2043 243.917 24.9058 240.953 21.942C237.988 18.9782 233.636 17.4962 227.897 17.4962C223.211 17.4962 219.384 18.7869 216.42 21.3684C213.455 23.8542 211.972 26.8659 211.972 30.4033C211.972 36.6179 215.654 40.4421 223.019 41.8762L237.223 44.6011C246.213 46.322 253.196 49.9073 258.169 55.3569C263.142 60.8066 265.629 67.2123 265.629 74.5741C265.629 82.9876 262.281 90.3494 255.587 96.6595C248.987 102.874 240.092 105.981 228.901 105.981C222.494 105.981 216.707 105.025 211.542 103.113C206.377 101.201 202.216 98.6673 199.06 95.5122C195.904 92.2616 193.416 88.8674 191.6 85.33C189.878 81.6969 188.825 77.9681 188.443 74.1439L206.807 69.2679C207.286 74.7175 209.39 79.2589 213.12 82.892C216.945 86.5252 222.254 88.3417 229.045 88.3417C234.21 88.3417 238.227 87.1944 241.096 84.8998C244.061 82.6052 245.544 79.5935 245.544 75.8648C245.544 72.901 244.444 70.3673 242.244 68.264C240.14 66.065 237.128 64.5832 233.206 63.8182L219.002 60.95C210.776 59.2291 204.273 55.835 199.49 50.7678C194.708 45.7005 192.317 39.3904 192.317 31.8374C192.317 22.8503 195.76 15.2972 202.647 9.17835C209.628 3.05946 217.998 0 227.754 0C233.588 0 238.801 0.812666 243.392 2.438C247.983 4.06334 251.665 6.26231 254.439 9.03494C257.213 11.712 259.365 14.4846 260.895 17.3528C262.425 20.2211 263.526 23.2327 264.195 26.3878Z" fill="#FF6719"/>
<path d="M311.295 20.9131H307.465V6.79099L301.72 20.9131H298.481L292.737 6.90464V20.9131H289.02V0.76709H294.144L300.143 15.3154L306 0.76709H311.295V20.9131Z" fill="#EBEBEB"/>
<path d="M317.524 12.3318H323.72C323.682 11.5552 323.4 10.9016 322.874 10.3712C322.367 9.84082 321.617 9.57561 320.622 9.57561C319.721 9.57561 318.988 9.85976 318.425 10.4281C317.862 10.9963 317.561 11.6309 317.524 12.3318ZM324.086 15.969L327.211 16.9066C326.835 18.1946 326.095 19.2556 324.987 20.0891C323.897 20.9224 322.536 21.3393 320.903 21.3393C318.913 21.3393 317.224 20.6668 315.835 19.3218C314.446 17.9579 313.75 16.1393 313.75 13.8662C313.75 11.7067 314.427 9.94501 315.779 8.5811C317.129 7.19827 318.726 6.50684 320.565 6.50684C322.706 6.50684 324.376 7.1509 325.578 8.43903C326.798 9.72716 327.408 11.4983 327.408 13.7526C327.408 13.9041 327.398 14.0746 327.38 14.264C327.38 14.4535 327.38 14.605 327.38 14.7187L327.351 14.9175H317.44C317.477 15.8268 317.834 16.5845 318.509 17.1908C319.186 17.7968 319.992 18.1 320.931 18.1C322.527 18.1 323.579 17.3897 324.086 15.969Z" fill="#EBEBEB"/>
<path d="M334.273 2.7561V6.93305H337.061V10.286H334.273V16.1393C334.273 16.7265 334.404 17.1434 334.667 17.3897C334.929 17.6358 335.342 17.7589 335.905 17.7589C336.412 17.7589 336.797 17.7211 337.061 17.6453V20.7709C336.515 20.9983 335.812 21.112 334.948 21.112C333.596 21.112 332.526 20.733 331.738 19.9753C330.949 19.1987 330.555 18.1379 330.555 16.7929V10.286H328.049V6.93305H328.752C329.448 6.93305 329.973 6.73414 330.33 6.33633C330.705 5.9196 330.893 5.37971 330.893 4.7167V2.7561H334.273Z" fill="#EBEBEB"/>
<path d="M343.117 16.8497C343.811 17.5507 344.647 17.9011 345.623 17.9011C346.599 17.9011 347.426 17.5507 348.101 16.8497C348.795 16.1488 349.143 15.1733 349.143 13.923C349.143 12.6728 348.795 11.6972 348.101 10.9963C347.426 10.2954 346.599 9.94501 345.623 9.94501C344.647 9.94501 343.811 10.2954 343.117 10.9963C342.44 11.6972 342.103 12.6728 342.103 13.923C342.103 15.1733 342.44 16.1488 343.117 16.8497ZM340.413 8.60952C341.802 7.20773 343.539 6.50684 345.623 6.50684C347.706 6.50684 349.434 7.20773 350.805 8.60952C352.193 10.0113 352.888 11.7825 352.888 13.923C352.888 16.0636 352.193 17.8347 350.805 19.2366C349.434 20.6384 347.706 21.3393 345.623 21.3393C343.539 21.3393 341.802 20.6384 340.413 19.2366C339.042 17.8347 338.357 16.0636 338.357 13.923C338.357 11.7825 339.042 10.0113 340.413 8.60952Z" fill="#EBEBEB"/>
<path d="M368.348 0.341064V18.3844C368.348 19.3125 368.386 20.1555 368.462 20.9133H364.885C364.791 20.4397 364.744 19.8997 364.744 19.2936C364.425 19.8809 363.918 20.3544 363.224 20.7144C362.547 21.0743 361.76 21.2542 360.858 21.2542C358.887 21.2542 357.264 20.5628 355.987 19.1799C354.728 17.7782 354.1 16.0164 354.1 13.8948C354.1 11.83 354.719 10.0967 355.958 8.69496C357.215 7.29317 358.812 6.59228 360.746 6.59228C362.736 6.59228 364.041 7.17004 364.66 8.32556V0.341064H368.348ZM357.873 13.8948C357.873 15.1261 358.192 16.1016 358.831 16.8215C359.469 17.5224 360.295 17.8728 361.309 17.8728C362.304 17.8728 363.121 17.513 363.759 16.7931C364.397 16.0733 364.716 15.0977 364.716 13.8664C364.716 12.654 364.397 11.7069 363.759 11.0249C363.121 10.3241 362.304 9.9736 361.309 9.9736C360.314 9.9736 359.487 10.3241 358.831 11.0249C358.192 11.7258 357.873 12.6825 357.873 13.8948Z" fill="#EBEBEB"/>
<path d="M375.423 16.8497C376.117 17.5507 376.953 17.9011 377.93 17.9011C378.906 17.9011 379.732 17.5507 380.407 16.8497C381.103 16.1488 381.449 15.1733 381.449 13.923C381.449 12.6728 381.103 11.6972 380.407 10.9963C379.732 10.2954 378.906 9.94501 377.93 9.94501C376.953 9.94501 376.117 10.2954 375.423 10.9963C374.748 11.6972 374.41 12.6728 374.41 13.923C374.41 15.1733 374.748 16.1488 375.423 16.8497ZM372.719 8.60952C374.109 7.20773 375.846 6.50684 377.93 6.50684C380.013 6.50684 381.741 7.20773 383.112 8.60952C384.501 10.0113 385.195 11.7825 385.195 13.923C385.195 16.0636 384.501 17.8347 383.112 19.2366C381.741 20.6384 380.013 21.3393 377.93 21.3393C375.846 21.3393 374.109 20.6384 372.719 19.2366C371.35 17.8347 370.664 16.0636 370.664 13.923C370.664 11.7825 371.35 10.0113 372.719 8.60952Z" fill="#EBEBEB"/>
<path d="M391.193 20.9133H387.449V0.341064H391.193V20.9133Z" fill="#EBEBEB"/>
<path d="M398.216 16.8497C398.91 17.5507 399.746 17.9011 400.722 17.9011C401.699 17.9011 402.525 17.5507 403.2 16.8497C403.894 16.1488 404.242 15.1733 404.242 13.923C404.242 12.6728 403.894 11.6972 403.2 10.9963C402.525 10.2954 401.699 9.94501 400.722 9.94501C399.746 9.94501 398.91 10.2954 398.216 10.9963C397.54 11.6972 397.203 12.6728 397.203 13.923C397.203 15.1733 397.54 16.1488 398.216 16.8497ZM395.512 8.60952C396.902 7.20773 398.639 6.50684 400.722 6.50684C402.806 6.50684 404.534 7.20773 405.904 8.60952C407.292 10.0113 407.988 11.7825 407.988 13.923C407.988 16.0636 407.292 17.8347 405.904 19.2366C404.534 20.6384 402.806 21.3393 400.722 21.3393C398.639 21.3393 396.902 20.6384 395.512 19.2366C394.142 17.8347 393.457 16.0636 393.457 13.923C393.457 11.7825 394.142 10.0113 395.512 8.60952Z" fill="#EBEBEB"/>
<path d="M409.256 21.6803L412.635 20.7711C412.766 21.5478 413.123 22.1824 413.705 22.6749C414.288 23.1675 415.01 23.4137 415.874 23.4137C418.333 23.4137 419.562 22.116 419.562 19.5209V18.498C419.244 19.0095 418.756 19.4356 418.098 19.7765C417.441 20.1176 416.643 20.288 415.704 20.288C413.866 20.288 412.325 19.644 411.087 18.3558C409.866 17.0678 409.256 15.4481 409.256 13.497C409.256 11.6027 409.866 9.99253 411.087 8.66652C412.306 7.3405 413.847 6.67749 415.704 6.67749C416.719 6.67749 417.563 6.86692 418.24 7.24579C418.915 7.60571 419.384 8.05086 419.648 8.58127V6.93323H423.252V19.4073C423.252 21.51 422.651 23.2527 421.449 24.6356C420.248 26.0373 418.427 26.7383 415.986 26.7383C414.165 26.7383 412.635 26.2457 411.397 25.2606C410.176 24.2756 409.463 23.0822 409.256 21.6803ZM416.353 17.0488C417.31 17.0488 418.089 16.7267 418.69 16.0828C419.31 15.4387 419.618 14.5767 419.618 13.497C419.618 12.4362 419.3 11.5837 418.662 10.9397C418.042 10.2956 417.273 9.97358 416.353 9.97358C415.395 9.97358 414.597 10.2956 413.959 10.9397C413.34 11.5837 413.03 12.4362 413.03 13.497C413.03 14.5767 413.34 15.4387 413.959 16.0828C414.578 16.7267 415.377 17.0488 416.353 17.0488Z" fill="#EBEBEB"/>
<path d="M430.084 20.9132H426.339V6.93316H430.084V20.9132ZM425.889 2.35841C425.889 1.71435 426.113 1.165 426.564 0.710365C427.015 0.236788 427.559 0 428.197 0C428.836 0 429.38 0.227317 429.831 0.681951C430.282 1.13658 430.506 1.69541 430.506 2.35841C430.506 2.98353 430.282 3.52341 429.831 3.97804C429.38 4.43267 428.836 4.65999 428.197 4.65999C427.559 4.65999 427.015 4.43267 426.564 3.97804C426.113 3.52341 425.889 2.98353 425.889 2.35841Z" fill="#EBEBEB"/>
<path d="M432.545 17.1055C432.545 15.9121 432.93 14.9554 433.7 14.2356C434.469 13.5158 435.464 13.0611 436.685 12.8717L440.093 12.3602C440.787 12.2655 441.134 11.934 441.134 11.3657C441.134 10.8353 440.928 10.3996 440.515 10.0587C440.121 9.71768 439.548 9.5472 438.797 9.5472C438.009 9.5472 437.379 9.76504 436.91 10.2007C436.459 10.6364 436.206 11.1763 436.15 11.8204L432.827 11.11C432.958 9.89765 433.549 8.82736 434.602 7.89915C435.653 6.97094 437.042 6.50684 438.769 6.50684C440.833 6.50684 442.355 7.00882 443.332 8.01281C444.308 8.99785 444.796 10.267 444.796 11.8204V18.6967C444.796 19.5302 444.852 20.269 444.964 20.9131H441.529C441.435 20.4962 441.388 19.9374 441.388 19.2366C440.506 20.6194 439.144 21.3109 437.304 21.3109C435.877 21.3109 434.723 20.8941 433.841 20.0606C432.977 19.2271 432.545 18.242 432.545 17.1055ZM438.093 18.4978C438.976 18.4978 439.698 18.2515 440.261 17.759C440.843 17.2475 441.134 16.414 441.134 15.2585V14.6334L438.009 15.1165C436.863 15.2869 436.291 15.8742 436.291 16.8782C436.291 17.3328 436.45 17.7211 436.769 18.0431C437.089 18.3463 437.53 18.4978 438.093 18.4978Z" fill="#EBEBEB"/>
<path d="M292.934 38.3598H296.003C296.96 38.3598 297.721 38.104 298.284 37.5925C298.847 37.0622 299.129 36.3612 299.129 35.4898C299.129 34.5996 298.847 33.8987 298.284 33.3873C297.74 32.8568 296.979 32.5917 296.003 32.5917H292.934V38.3598ZM296.481 41.7412H292.906V49.3278H289.02V29.1819H296.481C298.434 29.1819 300.012 29.7691 301.213 30.9435C302.434 32.1181 303.044 33.6241 303.044 35.4615C303.044 37.299 302.434 38.805 301.213 39.9794C300.012 41.1538 298.434 41.7412 296.481 41.7412Z" fill="#EBEBEB"/>
<path d="M313.23 35.2909V39.0985C312.854 39.0227 312.479 38.9848 312.104 38.9848C311.033 38.9848 310.171 39.2974 309.513 39.9224C308.856 40.5287 308.527 41.5327 308.527 42.9344V49.3278H304.781V35.3478H308.415V37.4221C309.09 35.9633 310.405 35.2341 312.357 35.2341C312.563 35.2341 312.854 35.253 313.23 35.2909Z" fill="#EBEBEB"/>
<path d="M318.74 45.2646C319.436 45.9654 320.27 46.3159 321.246 46.3159C322.223 46.3159 323.049 45.9654 323.726 45.2646C324.42 44.5636 324.768 43.5881 324.768 42.3377C324.768 41.0876 324.42 40.112 323.726 39.411C323.049 38.7102 322.223 38.3598 321.246 38.3598C320.27 38.3598 319.436 38.7102 318.74 39.411C318.065 40.112 317.727 41.0876 317.727 42.3377C317.727 43.5881 318.065 44.5636 318.74 45.2646ZM316.038 37.0243C317.427 35.6225 319.163 34.9216 321.246 34.9216C323.331 34.9216 325.058 35.6225 326.428 37.0243C327.818 38.426 328.512 40.1973 328.512 42.3377C328.512 44.4783 327.818 46.2496 326.428 47.6513C325.058 49.0531 323.331 49.754 321.246 49.754C319.163 49.754 317.427 49.0531 316.038 47.6513C314.667 46.2496 313.982 44.4783 313.982 42.3377C313.982 40.1973 314.667 38.426 316.038 37.0243Z" fill="#EBEBEB"/>
<path d="M334.51 54.7264H330.766V35.3477H334.398V37.0526C334.736 36.4842 335.28 36.0107 336.032 35.6319C336.782 35.2341 337.655 35.0352 338.65 35.0352C340.621 35.0352 342.179 35.7171 343.325 37.081C344.47 38.4259 345.042 40.1687 345.042 42.3092C345.042 44.4498 344.433 46.2116 343.212 47.5944C342.011 48.9773 340.444 49.6686 338.51 49.6686C336.67 49.6686 335.336 49.1004 334.51 47.9637V54.7264ZM340.369 45.2359C341.025 44.5161 341.354 43.5501 341.354 42.3376C341.354 41.1253 341.025 40.1687 340.369 39.4678C339.729 38.767 338.914 38.4166 337.919 38.4166C336.922 38.4166 336.097 38.7763 335.439 39.4962C334.783 40.1972 334.454 41.1443 334.454 42.3376C334.454 43.5311 334.783 44.4877 335.439 45.2076C336.097 45.9274 336.922 46.2874 337.919 46.2874C338.914 46.2874 339.729 45.9369 340.369 45.2359Z" fill="#EBEBEB"/>
<path d="M355.752 35.2909V39.0985C355.376 39.0227 355 38.9848 354.624 38.9848C353.555 38.9848 352.691 39.2974 352.034 39.9224C351.378 40.5287 351.048 41.5327 351.048 42.9344V49.3278H347.303V35.3478H350.936V37.4221C351.611 35.9633 352.926 35.2341 354.878 35.2341C355.084 35.2341 355.376 35.253 355.752 35.2909Z" fill="#EBEBEB"/>
<path d="M361.427 49.3277H357.683V35.3477H361.427V49.3277ZM357.232 30.773C357.232 30.1289 357.457 29.5796 357.908 29.1249C358.358 28.6513 358.903 28.4146 359.54 28.4146C360.18 28.4146 360.724 28.6418 361.175 29.0965C361.625 29.5511 361.85 30.1099 361.85 30.773C361.85 31.3981 361.625 31.938 361.175 32.3927C360.724 32.8472 360.18 33.0745 359.54 33.0745C358.903 33.0745 358.358 32.8472 357.908 32.3927C357.457 31.938 357.232 31.3981 357.232 30.773Z" fill="#EBEBEB"/>
<path d="M367.465 40.7466H373.661C373.623 39.9699 373.341 39.3164 372.816 38.786C372.309 38.2556 371.557 37.9903 370.562 37.9903C369.661 37.9903 368.93 38.2745 368.367 38.8428C367.804 39.411 367.503 40.0456 367.465 40.7466ZM374.026 44.3837L377.153 45.3213C376.777 46.6095 376.034 47.6703 374.927 48.5038C373.839 49.3373 372.477 49.754 370.845 49.754C368.855 49.754 367.164 49.0815 365.775 47.7366C364.385 46.3727 363.691 44.5541 363.691 42.281C363.691 40.1214 364.367 38.3598 365.719 36.9958C367.071 35.613 368.666 34.9216 370.506 34.9216C372.647 34.9216 374.317 35.5657 375.518 36.8538C376.739 38.1418 377.349 39.9131 377.349 42.1674C377.349 42.3189 377.34 42.4894 377.321 42.6788C377.321 42.8682 377.321 43.0197 377.321 43.1334L377.293 43.3323H367.381C367.418 44.2415 367.774 44.9993 368.451 45.6055C369.126 46.2117 369.934 46.5148 370.873 46.5148C372.468 46.5148 373.519 45.8044 374.026 44.3837Z" fill="#EBEBEB"/>
<path d="M384.214 31.1709V35.3478H387.001V38.7006H384.214V44.554C384.214 45.1414 384.345 45.5581 384.607 45.8044C384.87 46.0506 385.284 46.1738 385.847 46.1738C386.354 46.1738 386.739 46.1359 387.001 46.06V49.1856C386.456 49.413 385.753 49.5267 384.889 49.5267C383.537 49.5267 382.467 49.1477 381.678 48.3901C380.891 47.6134 380.496 46.5526 380.496 45.2076V38.7006H377.99V35.3478H378.694C379.389 35.3478 379.915 35.1489 380.27 34.751C380.646 34.3344 380.835 33.7944 380.835 33.1314V31.1709H384.214Z" fill="#EBEBEB"/>
<path d="M388.715 45.5202C388.715 44.3268 389.1 43.3702 389.869 42.6505C390.639 41.9306 391.634 41.4759 392.855 41.2865L396.263 40.775C396.956 40.6803 397.304 40.3488 397.304 39.7805C397.304 39.25 397.097 38.8143 396.685 38.4734C396.291 38.1325 395.718 37.962 394.967 37.962C394.178 37.962 393.549 38.1797 393.08 38.6154C392.629 39.0511 392.376 39.5911 392.32 40.2352L388.997 39.5249C389.128 38.3124 389.719 37.2421 390.77 36.314C391.823 35.3857 393.211 34.9216 394.939 34.9216C397.003 34.9216 398.524 35.4236 399.5 36.4276C400.476 37.4127 400.964 38.6818 400.964 40.2352V47.1115C400.964 47.945 401.02 48.6837 401.134 49.3278H397.699C397.604 48.911 397.557 48.3523 397.557 47.6513C396.676 49.0341 395.314 49.7256 393.474 49.7256C392.047 49.7256 390.893 49.3088 390.011 48.4753C389.147 47.6418 388.715 46.6568 388.715 45.5202ZM394.263 46.9126C395.144 46.9126 395.868 46.6663 396.431 46.1739C397.013 45.6623 397.304 44.8289 397.304 43.6734V43.0481L394.178 43.5312C393.033 43.7017 392.461 44.2889 392.461 45.293C392.461 45.7475 392.62 46.1358 392.939 46.4579C393.257 46.7611 393.699 46.9126 394.263 46.9126ZM400.035 29.4092L396.206 33.6713H393.192L395.756 29.4092H400.035Z" fill="#EBEBEB"/>
<path d="M412.485 35.2909V39.0985C412.109 39.0227 411.735 38.9848 411.359 38.9848C410.289 38.9848 409.425 39.2974 408.768 39.9224C408.11 40.5287 407.781 41.5327 407.781 42.9344V49.3278H404.037V35.3478H407.669V37.4221C408.346 35.9633 409.659 35.2341 411.611 35.2341C411.819 35.2341 412.109 35.253 412.485 35.2909Z" fill="#EBEBEB"/>
<path d="M418.161 49.3277H414.416V35.3477H418.161V49.3277ZM413.965 30.773C413.965 30.1289 414.191 29.5796 414.642 29.1249C415.092 28.6513 415.637 28.4146 416.274 28.4146C416.912 28.4146 417.456 28.6418 417.907 29.0965C418.358 29.5511 418.584 30.1099 418.584 30.773C418.584 31.3981 418.358 31.938 417.907 32.3927C417.456 32.8472 416.912 33.0745 416.274 33.0745C415.637 33.0745 415.092 32.8472 414.642 32.3927C414.191 31.938 413.965 31.3981 413.965 30.773Z" fill="#EBEBEB"/>
<path d="M420.621 45.5202C420.621 44.3268 421.006 43.3701 421.775 42.6504C422.545 41.9306 423.54 41.4759 424.76 41.2865L428.167 40.775C428.863 40.6802 429.21 40.3488 429.21 39.7805C429.21 39.25 429.003 38.8143 428.59 38.4734C428.197 38.1325 427.623 37.962 426.873 37.962C426.084 37.962 425.455 38.1797 424.986 38.6154C424.535 39.0511 424.281 39.5911 424.225 40.2352L420.903 39.5248C421.034 38.3124 421.625 37.2421 422.676 36.314C423.727 35.3857 425.117 34.9216 426.845 34.9216C428.91 34.9216 430.43 35.4236 431.406 36.4276C432.382 37.4126 432.87 38.6818 432.87 40.2352V47.1115C432.87 47.945 432.927 48.6837 433.04 49.3278H429.603C429.51 48.911 429.463 48.3523 429.463 47.6513C428.58 49.0341 427.221 49.7256 425.381 49.7256C423.954 49.7256 422.798 49.3088 421.917 48.4753C421.053 47.6418 420.621 46.6568 420.621 45.5202ZM426.168 46.9126C427.051 46.9126 427.774 46.6663 428.337 46.1738C428.919 45.6622 429.21 44.8289 429.21 43.6733V43.0481L426.084 43.5312C424.939 43.7017 424.367 44.2889 424.367 45.293C424.367 45.7475 424.526 46.1358 424.846 46.4579C425.164 46.7611 425.605 46.9126 426.168 46.9126Z" fill="#EBEBEB"/>
<path d="M301.523 77.7424H289.02V57.5964H301.523V61.2904H292.906V65.8934H300.706V69.3885H292.906V74.0484H301.523V77.7424Z" fill="#EBEBEB"/>
<path d="M302.764 77.7422L307.692 70.7238L302.764 63.7622H307.213C307.381 64.0085 307.841 64.7 308.593 65.8365C309.362 66.9542 309.822 67.6455 309.973 67.9107L312.704 63.7622H316.956L312.113 70.6101L317.125 77.7422H312.732L309.831 73.4515C309.737 73.6032 309.466 74.0104 309.015 74.6735C308.584 75.3365 308.17 75.9616 307.776 76.5488C307.4 77.1171 307.138 77.5149 306.987 77.7422H302.764Z" fill="#EBEBEB"/>
<path d="M322.453 77.7423H318.708V63.7623H322.453V77.7423ZM318.258 59.1876C318.258 58.5435 318.482 57.9942 318.933 57.5395C319.384 57.0659 319.928 56.8291 320.567 56.8291C321.205 56.8291 321.749 57.0565 322.2 57.5111C322.651 57.9658 322.875 58.5246 322.875 59.1876C322.875 59.8127 322.651 60.3525 322.2 60.8072C321.749 61.2618 321.205 61.4892 320.567 61.4892C319.928 61.4892 319.384 61.2618 318.933 60.8072C318.482 60.3525 318.258 59.8127 318.258 59.1876Z" fill="#EBEBEB"/>
<path d="M330.378 59.5854V63.7623H333.165V67.1153H330.378V72.9687C330.378 73.5559 330.509 73.9726 330.773 74.2189C331.035 74.4652 331.448 74.5883 332.011 74.5883C332.518 74.5883 332.903 74.5505 333.165 74.4747V77.6003C332.62 77.8276 331.917 77.9412 331.053 77.9412C329.701 77.9412 328.631 77.5624 327.844 76.8047C327.055 76.0279 326.66 74.9671 326.66 73.6222V67.1153H324.154V63.7623H324.858C325.553 63.7623 326.079 63.5634 326.436 63.1656C326.81 62.7489 326.999 62.2089 326.999 61.546V59.5854H330.378Z" fill="#EBEBEB"/>
</svg>
