<svg width="246" height="58" viewBox="0 0 246 58" fill="none" xmlns="http://www.w3.org/2000/svg">
<path d="M54.4375 56.8227H45.6056L44.8959 50.4655C43.4765 52.6107 41.3474 54.4159 38.5086 55.8809C35.7223 57.2936 32.3578 58 28.415 58C20.6345 58 14.0369 55.3577 8.62216 50.0731C3.20739 44.7885 0.5 37.7772 0.5 29.0392C0.5 20.3536 3.28624 13.3424 8.85873 8.00541C14.4838 2.66847 21.2391 0 29.1247 0C35.9589 0 41.5314 1.64817 45.8422 4.94452C50.2055 8.24087 53.1495 12.2959 54.674 17.1096L44.265 20.7984C43.4239 17.9206 41.7154 15.4353 39.1394 13.3424C36.616 11.1971 33.2778 10.1245 29.1247 10.1245C24.3933 10.1245 20.2666 11.7465 16.7443 14.9905C13.2747 18.2346 11.5398 22.9175 11.5398 29.0392C11.5398 35.0564 13.2221 39.7393 16.5866 43.088C20.0037 46.4366 24.2093 48.111 29.2036 48.111C33.8298 48.111 37.3783 46.9599 39.8491 44.6576C42.3199 42.3031 43.7656 39.8439 44.1862 37.2801H26.5225V27.862H54.4375V56.8227Z" fill="white"/>
<path d="M73.8077 26.5277H82.403C85.0841 26.5277 87.2132 25.8214 88.7904 24.4087C90.3675 22.9436 91.156 21.0077 91.156 18.6008C91.156 16.1416 90.3675 14.2057 88.7904 12.793C87.2658 11.3279 85.1367 10.5954 82.403 10.5954H73.8077V26.5277ZM83.7436 35.8674H73.7289V56.8227H62.8468V1.17727H83.7436C89.2109 1.17727 93.6268 2.79928 96.9914 6.0433C100.408 9.28732 102.117 13.447 102.117 18.5223C102.117 23.5977 100.408 27.7573 96.9914 31.0014C93.6268 34.2454 89.2109 35.8674 83.7436 35.8674Z" fill="white"/>
<path d="M145.711 14.4411L135.933 17.4235C135.565 15.4353 134.566 13.6301 132.937 12.0081C131.307 10.3861 128.915 9.5751 125.761 9.5751C123.185 9.5751 121.082 10.2815 119.452 11.6942C117.823 13.0546 117.008 14.7028 117.008 16.6387C117.008 20.0397 119.032 22.1326 123.08 22.9175L130.887 24.4087C135.828 25.3505 139.666 27.3126 142.399 30.295C145.133 33.2774 146.5 36.783 146.5 40.8119C146.5 45.4163 144.66 49.4452 140.98 52.8985C137.353 56.2995 132.464 58 126.313 58C122.791 58 119.61 57.4768 116.771 56.4303C113.933 55.3839 111.646 53.9973 109.911 52.2706C108.176 50.4917 106.809 48.6342 105.81 46.6982C104.864 44.71 104.286 42.6694 104.076 40.5765L114.169 37.908C114.432 40.8904 115.588 43.3757 117.639 45.364C119.742 47.3523 122.659 48.3464 126.392 48.3464C129.231 48.3464 131.439 47.7185 133.016 46.4628C134.645 45.207 135.46 43.5589 135.46 41.5183C135.46 39.8963 134.856 38.5097 133.646 37.3586C132.49 36.1552 130.834 35.3442 128.679 34.9256L120.872 33.3559C116.351 32.4141 112.776 30.5566 110.147 27.7835C107.519 25.0104 106.205 21.5571 106.205 17.4235C106.205 12.5052 108.097 8.37167 111.882 5.023C115.72 1.67433 120.32 0 125.682 0C128.889 0 131.754 0.444745 134.277 1.33424C136.801 2.22372 138.825 3.42715 140.349 4.94452C141.874 6.40956 143.057 7.92693 143.898 9.49662C144.739 11.0663 145.343 12.7145 145.711 14.4411Z" fill="white"/>
<path d="M171.784 11.5377H169.672V3.74663L166.504 11.5377H164.718L161.55 3.80933V11.5377H159.5V0.423259H162.326L165.634 8.44951L168.865 0.423259H171.784V11.5377Z" fill="#353535"/>
<path d="M175.219 6.8035H178.636C178.615 6.37502 178.46 6.01446 178.17 5.72184C177.89 5.42921 177.476 5.2829 176.928 5.2829C176.431 5.2829 176.027 5.43967 175.716 5.75319C175.406 6.06672 175.24 6.41682 175.219 6.8035ZM178.838 8.81006L180.562 9.32738C180.354 10.038 179.946 10.6233 179.335 11.0831C178.734 11.543 177.984 11.7729 177.083 11.7729C175.985 11.7729 175.054 11.4019 174.287 10.6599C173.521 9.9074 173.138 8.90412 173.138 7.65002C173.138 6.45862 173.511 5.48669 174.256 4.73423C175.002 3.97132 175.882 3.58987 176.896 3.58987C178.077 3.58987 178.998 3.94519 179.661 4.65585C180.334 5.36651 180.67 6.34366 180.67 7.58731C180.67 7.67092 180.665 7.76498 180.655 7.86949C180.655 7.974 180.655 8.0576 180.655 8.12031L180.639 8.23004H175.173C175.193 8.73168 175.39 9.14972 175.763 9.48414C176.136 9.81857 176.581 9.98578 177.098 9.98578C177.978 9.98578 178.558 9.59388 178.838 8.81006Z" fill="#353535"/>
<path d="M184.455 1.5206V3.82501H185.993V5.67481H184.455V8.90412C184.455 9.2281 184.528 9.45802 184.673 9.59388C184.818 9.72974 185.046 9.79767 185.356 9.79767C185.636 9.79767 185.848 9.77677 185.993 9.73496V11.4594C185.693 11.5848 185.304 11.6475 184.828 11.6475C184.083 11.6475 183.493 11.4385 183.058 11.0204C182.623 10.5919 182.405 10.0067 182.405 9.26467V5.67481H181.023V3.82501H181.412C181.795 3.82501 182.085 3.71528 182.281 3.49581C182.488 3.26589 182.592 2.96804 182.592 2.60226V1.5206H184.455Z" fill="#353535"/>
<path d="M189.333 9.29603C189.716 9.68271 190.177 9.87605 190.715 9.87605C191.254 9.87605 191.709 9.68271 192.082 9.29603C192.465 8.90935 192.657 8.37113 192.657 7.68137C192.657 6.99162 192.465 6.4534 192.082 6.06672C191.709 5.68003 191.254 5.48669 190.715 5.48669C190.177 5.48669 189.716 5.68003 189.333 6.06672C188.961 6.4534 188.774 6.99162 188.774 7.68137C188.774 8.37113 188.961 8.90935 189.333 9.29603ZM187.842 4.74991C188.609 3.97655 189.566 3.58987 190.715 3.58987C191.865 3.58987 192.817 3.97655 193.573 4.74991C194.339 5.52327 194.722 6.50043 194.722 7.68137C194.722 8.86232 194.339 9.83947 193.573 10.6128C192.817 11.3862 191.865 11.7729 190.715 11.7729C189.566 11.7729 188.609 11.3862 187.842 10.6128C187.087 9.83947 186.709 8.86232 186.709 7.68137C186.709 6.50043 187.087 5.52327 187.842 4.74991Z" fill="#353535"/>
<path d="M203.248 0.188116V10.1425C203.248 10.6546 203.268 11.1197 203.31 11.5377H201.338C201.286 11.2765 201.26 10.9786 201.26 10.6442C201.084 10.9682 200.804 11.2294 200.421 11.428C200.049 11.6266 199.614 11.7258 199.117 11.7258C198.03 11.7258 197.134 11.3444 196.43 10.5815C195.736 9.80812 195.39 8.83619 195.39 7.6657C195.39 6.52655 195.731 5.5703 196.415 4.79694C197.108 4.02358 197.988 3.63689 199.055 3.63689C200.152 3.63689 200.872 3.95565 201.213 4.59315V0.188116H203.248ZM197.471 7.6657C197.471 8.345 197.647 8.88322 197.999 9.28035C198.351 9.66703 198.806 9.86037 199.365 9.86037C199.914 9.86037 200.364 9.66181 200.716 9.26467C201.068 8.86754 201.244 8.32932 201.244 7.65002C201.244 6.98117 201.068 6.45862 200.716 6.08239C200.364 5.69571 199.914 5.50237 199.365 5.50237C198.817 5.50237 198.361 5.69571 197.999 6.08239C197.647 6.46907 197.471 6.99684 197.471 7.6657Z" fill="#353535"/>
<path d="M207.15 9.29603C207.533 9.68271 207.994 9.87605 208.532 9.87605C209.071 9.87605 209.526 9.68271 209.899 9.29603C210.282 8.90935 210.473 8.37113 210.473 7.68137C210.473 6.99162 210.282 6.4534 209.899 6.06672C209.526 5.68003 209.071 5.48669 208.532 5.48669C207.994 5.48669 207.533 5.68003 207.15 6.06672C206.777 6.4534 206.591 6.99162 206.591 7.68137C206.591 8.37113 206.777 8.90935 207.15 9.29603ZM205.659 4.74991C206.425 3.97655 207.383 3.58987 208.532 3.58987C209.681 3.58987 210.634 3.97655 211.39 4.74991C212.156 5.52327 212.539 6.50043 212.539 7.68137C212.539 8.86232 212.156 9.83947 211.39 10.6128C210.634 11.3862 209.681 11.7729 208.532 11.7729C207.383 11.7729 206.425 11.3862 205.659 10.6128C204.903 9.83947 204.526 8.86232 204.526 7.68137C204.526 6.50043 204.903 5.52327 205.659 4.74991Z" fill="#353535"/>
<path d="M215.847 11.5377H213.781V0.188116H215.847V11.5377Z" fill="#353535"/>
<path d="M219.72 9.29603C220.103 9.68271 220.563 9.87605 221.102 9.87605C221.64 9.87605 222.096 9.68271 222.468 9.29603C222.851 8.90935 223.043 8.37113 223.043 7.68137C223.043 6.99162 222.851 6.4534 222.468 6.06672C222.096 5.68003 221.64 5.48669 221.102 5.48669C220.563 5.48669 220.103 5.68003 219.72 6.06672C219.347 6.4534 219.161 6.99162 219.161 7.68137C219.161 8.37113 219.347 8.90935 219.72 9.29603ZM218.229 4.74991C218.995 3.97655 219.953 3.58987 221.102 3.58987C222.251 3.58987 223.203 3.97655 223.959 4.74991C224.725 5.52327 225.108 6.50043 225.108 7.68137C225.108 8.86232 224.725 9.83947 223.959 10.6128C223.203 11.3862 222.251 11.7729 221.102 11.7729C219.953 11.7729 218.995 11.3862 218.229 10.6128C217.473 9.83947 217.095 8.86232 217.095 7.68137C217.095 6.50043 217.473 5.52327 218.229 4.74991Z" fill="#353535"/>
<path d="M225.807 11.961L227.671 11.4594C227.743 11.8878 227.94 12.2379 228.261 12.5097C228.582 12.7814 228.98 12.9172 229.457 12.9172C230.813 12.9172 231.491 12.2014 231.491 10.7696V10.2053C231.315 10.4874 231.046 10.7226 230.683 10.9107C230.321 11.0988 229.881 11.1929 229.363 11.1929C228.349 11.1929 227.5 10.8375 226.816 10.1269C226.144 9.41621 225.807 8.52267 225.807 7.44623C225.807 6.40114 226.144 5.51282 226.816 4.78126C227.489 4.0497 228.338 3.68392 229.363 3.68392C229.922 3.68392 230.388 3.78843 230.761 3.99745C231.134 4.19601 231.393 4.44161 231.538 4.73423V3.82501H233.525V10.7069C233.525 11.8669 233.194 12.8284 232.531 13.5913C231.869 14.3647 230.865 14.7514 229.519 14.7514C228.514 14.7514 227.671 14.4796 226.987 13.9362C226.314 13.3928 225.921 12.7344 225.807 11.961ZM229.721 9.40576C230.249 9.40576 230.678 9.2281 231.01 8.87277C231.351 8.51744 231.522 8.04193 231.522 7.44623C231.522 6.86098 231.346 6.39069 230.994 6.03536C230.652 5.68003 230.228 5.50237 229.721 5.50237C229.193 5.50237 228.753 5.68003 228.401 6.03536C228.059 6.39069 227.888 6.86098 227.888 7.44623C227.888 8.04193 228.059 8.51744 228.401 8.87277C228.742 9.2281 229.182 9.40576 229.721 9.40576Z" fill="#353535"/>
<path d="M237.294 11.5377H235.229V3.82501H237.294V11.5377ZM234.98 1.30113C234.98 0.945802 235.104 0.642727 235.353 0.391907C235.601 0.130636 235.902 0 236.254 0C236.606 0 236.906 0.12541 237.154 0.376231C237.403 0.627051 237.527 0.935351 237.527 1.30113C237.527 1.64601 237.403 1.94386 237.154 2.19468C236.906 2.4455 236.606 2.57091 236.254 2.57091C235.902 2.57091 235.601 2.4455 235.353 2.19468C235.104 1.94386 234.98 1.64601 234.98 1.30113Z" fill="#353535"/>
<path d="M238.651 9.43711C238.651 8.77871 238.864 8.25094 239.288 7.85381C239.713 7.45668 240.261 7.20586 240.934 7.10135L242.813 6.81918C243.196 6.76692 243.388 6.58403 243.388 6.27051C243.388 5.97788 243.274 5.73751 243.046 5.5494C242.829 5.36128 242.513 5.26723 242.099 5.26723C241.664 5.26723 241.317 5.38741 241.058 5.62778C240.81 5.86815 240.67 6.166 240.639 6.52133L238.807 6.12942C238.879 5.46057 239.205 4.87009 239.785 4.358C240.365 3.84591 241.131 3.58987 242.083 3.58987C243.222 3.58987 244.061 3.86681 244.599 4.42071C245.138 4.96415 245.407 5.66436 245.407 6.52133V10.315C245.407 10.7748 245.438 11.1824 245.5 11.5377H243.605C243.554 11.3078 243.528 10.9995 243.528 10.6128C243.041 11.3757 242.29 11.7572 241.276 11.7572C240.489 11.7572 239.852 11.5273 239.366 11.0674C238.889 10.6076 238.651 10.0642 238.651 9.43711ZM241.711 10.2053C242.197 10.2053 242.596 10.0694 242.907 9.79767C243.227 9.5155 243.388 9.05566 243.388 8.41816V8.07328L241.664 8.33978C241.033 8.43383 240.717 8.75781 240.717 9.3117C240.717 9.56252 240.805 9.77677 240.981 9.95443C241.157 10.1216 241.4 10.2053 241.711 10.2053Z" fill="#353535"/>
<path d="M161.659 21.163H163.351C163.879 21.163 164.299 21.0219 164.609 20.7397C164.92 20.4471 165.075 20.0604 165.075 19.5797C165.075 19.0885 164.92 18.7018 164.609 18.4196C164.309 18.127 163.89 17.9807 163.351 17.9807H161.659V21.163ZM163.615 23.0284H161.643V27.214H159.5V16.0995H163.615C164.692 16.0995 165.562 16.4235 166.224 17.0715C166.897 17.7194 167.234 18.5503 167.234 19.564C167.234 20.5777 166.897 21.4086 166.224 22.0565C165.562 22.7045 164.692 23.0284 163.615 23.0284Z" fill="#353535"/>
<path d="M172.851 19.4699V21.5705C172.644 21.5287 172.437 21.5078 172.23 21.5078C171.64 21.5078 171.164 21.6803 170.801 22.0252C170.439 22.3596 170.258 22.9135 170.258 23.6868V27.214H168.192V19.5013H170.196V20.6456C170.569 19.8409 171.293 19.4386 172.37 19.4386C172.484 19.4386 172.644 19.449 172.851 19.4699Z" fill="#353535"/>
<path d="M175.89 24.9723C176.273 25.359 176.734 25.5523 177.272 25.5523C177.811 25.5523 178.266 25.359 178.639 24.9723C179.022 24.5856 179.214 24.0474 179.214 23.3576C179.214 22.6679 179.022 22.1297 178.639 21.743C178.266 21.3563 177.811 21.163 177.272 21.163C176.734 21.163 176.273 21.3563 175.89 21.743C175.517 22.1297 175.331 22.6679 175.331 23.3576C175.331 24.0474 175.517 24.5856 175.89 24.9723ZM174.399 20.4262C175.165 19.6528 176.123 19.2661 177.272 19.2661C178.422 19.2661 179.374 19.6528 180.13 20.4262C180.896 21.1995 181.279 22.1767 181.279 23.3576C181.279 24.5386 180.896 25.5157 180.13 26.2891C179.374 27.0625 178.422 27.4491 177.272 27.4491C176.123 27.4491 175.165 27.0625 174.399 26.2891C173.644 25.5157 173.266 24.5386 173.266 23.3576C173.266 22.1767 173.644 21.1995 174.399 20.4262Z" fill="#353535"/>
<path d="M184.587 30.1925H182.521V19.5013H184.525V20.4419C184.711 20.1283 185.011 19.8671 185.425 19.658C185.839 19.4386 186.321 19.3288 186.87 19.3288C187.957 19.3288 188.816 19.7051 189.448 20.4575C190.079 21.1995 190.395 22.161 190.395 23.342C190.395 24.5229 190.058 25.4948 189.385 26.2577C188.723 27.0207 187.858 27.4021 186.792 27.4021C185.777 27.4021 185.042 27.0886 184.587 26.4615V30.1925ZM187.817 24.9566C188.179 24.5595 188.36 24.0265 188.36 23.3576C188.36 22.6888 188.179 22.161 187.817 21.7743C187.465 21.3877 187.015 21.1943 186.466 21.1943C185.917 21.1943 185.462 21.3929 185.099 21.79C184.737 22.1767 184.556 22.6992 184.556 23.3576C184.556 24.016 184.737 24.5438 185.099 24.9409C185.462 25.3381 185.917 25.5366 186.466 25.5366C187.015 25.5366 187.465 25.3433 187.817 24.9566Z" fill="#353535"/>
<path d="M196.301 19.4699V21.5705C196.094 21.5287 195.887 21.5078 195.68 21.5078C195.09 21.5078 194.613 21.6803 194.251 22.0252C193.889 22.3596 193.707 22.9135 193.707 23.6868V27.214H191.642V19.5013H193.645V20.6456C194.018 19.8409 194.743 19.4386 195.819 19.4386C195.933 19.4386 196.094 19.449 196.301 19.4699Z" fill="#353535"/>
<path d="M199.431 27.214H197.366V19.5013H199.431V27.214ZM197.117 16.9774C197.117 16.6221 197.241 16.319 197.49 16.0682C197.738 15.8069 198.039 15.6763 198.391 15.6763C198.743 15.6763 199.043 15.8017 199.291 16.0525C199.54 16.3033 199.664 16.6116 199.664 16.9774C199.664 17.3223 199.54 17.6201 199.291 17.8709C199.043 18.1218 198.743 18.2472 198.391 18.2472C198.039 18.2472 197.738 18.1218 197.49 17.8709C197.241 17.6201 197.117 17.3223 197.117 16.9774Z" fill="#353535"/>
<path d="M202.76 22.4798H206.177C206.156 22.0513 206.001 21.6907 205.711 21.3981C205.432 21.1055 205.018 20.9592 204.469 20.9592C203.972 20.9592 203.568 21.1159 203.257 21.4295C202.947 21.743 202.781 22.0931 202.76 22.4798ZM206.379 24.4863L208.103 25.0036C207.896 25.7143 207.487 26.2996 206.876 26.7594C206.275 27.2192 205.525 27.4491 204.624 27.4491C203.527 27.4491 202.595 27.0781 201.829 26.3361C201.063 25.5837 200.679 24.5804 200.679 23.3263C200.679 22.1349 201.052 21.163 201.798 20.4105C202.543 19.6476 203.423 19.2661 204.438 19.2661C205.618 19.2661 206.539 19.6215 207.202 20.3321C207.875 21.0428 208.211 22.0199 208.211 23.2636C208.211 23.3472 208.206 23.4412 208.196 23.5458C208.196 23.6503 208.196 23.7339 208.196 23.7966L208.18 23.9063H202.714C202.735 24.4079 202.931 24.826 203.304 25.1604C203.677 25.4948 204.122 25.6621 204.64 25.6621C205.52 25.6621 206.099 25.2701 206.379 24.4863Z" fill="#353535"/>
<path d="M211.997 17.1969V19.5013H213.534V21.3511H211.997V24.5804C211.997 24.9044 212.069 25.1343 212.214 25.2701C212.359 25.406 212.587 25.4739 212.897 25.4739C213.177 25.4739 213.389 25.453 213.534 25.4112V27.1356C213.234 27.261 212.846 27.3237 212.369 27.3237C211.624 27.3237 211.034 27.1147 210.599 26.6967C210.164 26.2682 209.947 25.683 209.947 24.9409V21.3511H208.565V19.5013H208.953C209.336 19.5013 209.626 19.3915 209.822 19.1721C210.03 18.9422 210.133 18.6443 210.133 18.2785V17.1969H211.997Z" fill="#353535"/>
<path d="M214.48 25.1134C214.48 24.455 214.692 23.9272 215.117 23.5301C215.541 23.1329 216.09 22.8821 216.763 22.7776L218.642 22.4954C219.025 22.4432 219.217 22.2603 219.217 21.9468C219.217 21.6542 219.103 21.4138 218.875 21.2257C218.657 21.0375 218.342 20.9435 217.928 20.9435C217.493 20.9435 217.146 21.0637 216.887 21.304C216.639 21.5444 216.499 21.8423 216.468 22.1976L214.635 21.8057C214.708 21.1368 215.034 20.5464 215.614 20.0343C216.193 19.5222 216.96 19.2661 217.912 19.2661C219.051 19.2661 219.89 19.5431 220.428 20.097C220.966 20.6404 221.235 21.3406 221.235 22.1976V25.9913C221.235 26.4511 221.267 26.8587 221.329 27.214H219.434C219.382 26.9841 219.356 26.6758 219.356 26.2891C218.87 27.052 218.119 27.4335 217.104 27.4335C216.318 27.4335 215.681 27.2036 215.194 26.7437C214.718 26.2839 214.48 25.7404 214.48 25.1134ZM217.539 25.8815C218.026 25.8815 218.425 25.7457 218.735 25.4739C219.056 25.1918 219.217 24.7319 219.217 24.0944V23.7495L217.493 24.016C216.861 24.1101 216.545 24.4341 216.545 24.988C216.545 25.2388 216.633 25.453 216.809 25.6307C216.985 25.7979 217.229 25.8815 217.539 25.8815ZM220.723 16.2249L218.611 18.5764H216.949L218.362 16.2249H220.723Z" fill="#353535"/>
<path d="M227.588 19.4699V21.5705C227.381 21.5287 227.174 21.5078 226.967 21.5078C226.377 21.5078 225.901 21.6803 225.538 22.0252C225.176 22.3596 224.995 22.9135 224.995 23.6868V27.214H222.929V19.5013H224.933V20.6456C225.305 19.8409 226.03 19.4386 227.107 19.4386C227.221 19.4386 227.381 19.449 227.588 19.4699Z" fill="#353535"/>
<path d="M230.718 27.214H228.653V19.5013H230.718V27.214ZM228.404 16.9774C228.404 16.6221 228.529 16.319 228.777 16.0682C229.025 15.8069 229.326 15.6763 229.678 15.6763C230.03 15.6763 230.33 15.8017 230.578 16.0525C230.827 16.3033 230.951 16.6116 230.951 16.9774C230.951 17.3223 230.827 17.6201 230.578 17.8709C230.33 18.1218 230.03 18.2472 229.678 18.2472C229.326 18.2472 229.025 18.1218 228.777 17.8709C228.529 17.6201 228.404 17.3223 228.404 16.9774Z" fill="#353535"/>
<path d="M232.075 25.1134C232.075 24.455 232.288 23.9272 232.712 23.5301C233.137 23.1329 233.685 22.8821 234.358 22.7776L236.237 22.4954C236.62 22.4432 236.812 22.2603 236.812 21.9468C236.812 21.6542 236.698 21.4138 236.47 21.2257C236.253 21.0375 235.937 20.9435 235.523 20.9435C235.088 20.9435 234.741 21.0637 234.483 21.304C234.234 21.5444 234.094 21.8423 234.063 22.1976L232.231 21.8057C232.303 21.1368 232.629 20.5464 233.209 20.0343C233.789 19.5222 234.555 19.2661 235.508 19.2661C236.646 19.2661 237.485 19.5431 238.023 20.097C238.562 20.6404 238.831 21.3406 238.831 22.1976V25.9913C238.831 26.4511 238.862 26.8587 238.924 27.214H237.029C236.978 26.9841 236.952 26.6758 236.952 26.2891C236.465 27.052 235.715 27.4335 234.7 27.4335C233.913 27.4335 233.276 27.2036 232.79 26.7437C232.314 26.2839 232.075 25.7404 232.075 25.1134ZM235.135 25.8815C235.621 25.8815 236.02 25.7457 236.331 25.4739C236.652 25.1918 236.812 24.7319 236.812 24.0944V23.7495L235.088 24.016C234.457 24.1101 234.141 24.4341 234.141 24.988C234.141 25.2388 234.229 25.453 234.405 25.6307C234.581 25.7979 234.824 25.8815 235.135 25.8815Z" fill="#353535"/>
<path d="M166.395 42.8903H159.5V31.7758H166.395V33.8137H161.643V36.3533H165.945V38.2814H161.643V40.8524H166.395V42.8903Z" fill="#353535"/>
<path d="M167.079 42.8903L169.797 39.0182L167.079 35.1775H169.533C169.626 35.3134 169.88 35.6949 170.294 36.3219C170.718 36.9385 170.972 37.32 171.055 37.4663L172.561 35.1775H174.906L172.235 38.9555L174.999 42.8903H172.577L170.977 40.5232C170.925 40.6068 170.775 40.8315 170.527 41.1972C170.289 41.563 170.061 41.9079 169.843 42.2319C169.636 42.5454 169.491 42.7649 169.409 42.8903H167.079Z" fill="#353535"/>
<path d="M177.938 42.8903H175.872V35.1775H177.938V42.8903ZM175.624 32.6537C175.624 32.2983 175.748 31.9953 175.997 31.7444C176.245 31.4832 176.545 31.3525 176.897 31.3525C177.249 31.3525 177.55 31.4779 177.798 31.7288C178.047 31.9796 178.171 32.2879 178.171 32.6537C178.171 32.9985 178.047 33.2964 177.798 33.5472C177.55 33.798 177.249 33.9234 176.897 33.9234C176.545 33.9234 176.245 33.798 175.997 33.5472C175.748 33.2964 175.624 32.9985 175.624 32.6537Z" fill="#353535"/>
<path d="M182.308 32.8731V35.1775H183.845V37.0273H182.308V40.2567C182.308 40.5806 182.38 40.8106 182.525 40.9464C182.67 41.0823 182.898 41.1502 183.209 41.1502C183.488 41.1502 183.7 41.1293 183.845 41.0875V42.8119C183.545 42.9373 183.157 43 182.681 43C181.935 43 181.345 42.791 180.91 42.373C180.475 41.9445 180.258 41.3592 180.258 40.6172V37.0273H178.876V35.1775H179.264C179.647 35.1775 179.937 35.0678 180.134 34.8483C180.341 34.6184 180.444 34.3206 180.444 33.9548V32.8731H182.308Z" fill="#353535"/>
</svg>
