<svg width="269" height="269" viewBox="0 0 269 269" fill="none" xmlns="http://www.w3.org/2000/svg">
<circle cx="134.5" cy="134.5" r="134.5" fill="url(#paint0_linear_1265_27)"/>
<path d="M40.5 201.629C61.4509 230.914 95.7466 250 134.5 250C173.253 250 207.549 230.914 228.5 201.629" stroke="#FF6719" stroke-width="2" stroke-linecap="round" stroke-linejoin="round" stroke-dasharray="0.1 15"/>
<path d="M97.92 124L94.2 83.98H89.52L86.4 100.06C86.22 101.02 85.98 101.92 85.8 102.88C85.56 104.32 85.38 105.82 85.14 107.26C84.84 109.12 84.36 110.98 84.24 112.9C83.82 109.66 83.34 106.42 82.74 103.18C82.56 102.22 82.26 101.26 82.08 100.3L78.6 83.98H73.98L70.68 124H75.72L77.28 96.46C78.42 105.76 80.64 114.88 82.56 124H86.16C87.9 114.82 89.82 105.7 91.26 96.46C91.56 98.32 91.38 100.18 91.44 102.04C91.5 103.84 91.62 105.58 91.68 107.38C91.92 112.9 92.34 118.48 92.7 124H97.92ZM120.174 124L111.654 83.98H107.394L98.6944 124H103.914L105.414 116.2H113.334L114.834 124H120.174ZM106.194 112.06C107.454 105.34 108.774 98.62 109.434 91.78C110.154 98.56 111.354 105.34 112.554 112.06H106.194ZM140.955 124L133.335 104.56C138.015 103.48 139.095 98.32 139.095 94.42C139.095 91.24 138.375 87.52 135.675 85.48C133.875 84.1 132.015 83.98 129.855 83.98H122.715V124H128.115V105.34L135.435 124H140.955ZM128.115 88.42H129.015C130.575 88.42 131.895 88.6 132.795 90.1C133.635 91.54 133.875 93.76 133.875 95.38C133.875 97.24 133.515 99.52 132.015 100.78C130.935 101.68 129.495 101.74 128.115 101.74V88.42ZM159.632 118.48C158.552 119.02 157.652 119.26 156.452 119.26C149.252 119.26 148.832 109.6 148.832 104.38C148.832 99.28 148.892 88.48 156.152 88.48C157.412 88.48 158.552 88.9 159.632 89.5V84.64C158.012 83.74 156.992 83.44 155.132 83.44C144.152 83.44 143.132 96.46 143.132 104.68C143.132 112.9 144.572 124.54 155.252 124.54C157.112 124.54 158.012 124.36 159.632 123.4V118.48ZM183.472 124L174.952 83.98H170.692L161.992 124H167.212L168.712 116.2H176.632L178.132 124H183.472ZM169.492 112.06C170.752 105.34 172.072 98.62 172.732 91.78C173.452 98.56 174.652 105.34 175.852 112.06H169.492ZM198.104 84.82C196.124 83.8 194.804 83.5 192.584 83.5C186.464 83.5 183.524 88 183.524 93.7C183.524 104.38 194.744 105.64 194.744 113.92C194.744 116.86 193.184 119.38 190.004 119.38C187.964 119.38 186.404 118.48 184.784 117.28V122.62C186.584 124 188.444 124.54 190.664 124.54C196.664 124.54 199.964 119.5 199.964 113.92C199.964 102.88 188.804 101.02 188.804 93.64C188.804 90.76 190.604 88.3 193.664 88.3C195.344 88.3 196.724 89.08 198.044 90.1L198.104 84.82Z" fill="white"/>
<path d="M95.597 135.969H87.785L83.786 158.847C82.949 163.404 82.391 168.054 81.647 172.611C81.089 175.959 80.438 179.307 80.252 182.655C79.88 179.121 79.322 175.587 78.764 172.053C76.997 159.963 75.044 147.966 73.091 135.969H64.814L76.811 198H83.414L95.597 135.969ZM107.608 198V135.969H99.2378V198H107.608ZM142.144 135.969H134.332L130.333 158.847C129.496 163.404 128.938 168.054 128.194 172.611C127.636 175.959 126.985 179.307 126.799 182.655C126.427 179.121 125.869 175.587 125.311 172.053C123.544 159.963 121.591 147.966 119.638 135.969H111.361L123.358 198H129.961L142.144 135.969ZM172.976 198L159.77 135.969H153.167L139.682 198H147.773L150.098 185.91H162.374L164.699 198H172.976ZM151.307 179.493C153.26 169.077 155.306 158.661 156.329 148.059C157.445 158.568 159.305 169.077 161.165 179.493H151.307ZM195.656 137.271C192.587 135.69 190.541 135.225 187.1 135.225C177.614 135.225 173.057 142.2 173.057 151.035C173.057 167.589 190.448 169.542 190.448 182.376C190.448 186.933 188.03 190.839 183.101 190.839C179.939 190.839 177.521 189.444 175.01 187.584V195.861C177.8 198 180.683 198.837 184.124 198.837C193.424 198.837 198.539 191.025 198.539 182.376C198.539 165.264 181.241 162.381 181.241 150.942C181.241 146.478 184.031 142.665 188.774 142.665C191.378 142.665 193.517 143.874 195.563 145.455L195.656 137.271Z" fill="#FF6719"/>
<path d="M22.2207 184.894L24.7658 183.883L24.0735 182.141L25.4967 181.575L26.1891 183.317L30.3751 181.652C30.7546 181.501 31.0004 181.307 31.1124 181.068C31.22 180.819 31.1939 180.493 31.0341 180.091C30.9409 179.857 30.8365 179.659 30.7208 179.498L32.0603 178.966C32.2673 179.194 32.4596 179.531 32.6371 179.977C32.9123 180.669 32.9288 181.296 32.6867 181.858C32.4447 182.42 31.9608 182.845 31.2353 183.133L26.8148 184.891L27.4273 186.431L26.0041 186.997L25.831 186.562C25.6668 186.149 25.4331 185.886 25.13 185.774C24.8112 185.655 24.4677 185.669 24.0993 185.815L22.7933 186.334L22.2207 184.894Z" fill="#FF6719"/>
<path d="M19.7631 169.174L21.5007 168.697C21.5327 168.95 21.5806 169.192 21.6441 169.424C22.0638 170.953 23.1309 171.482 24.8454 171.012L29.033 169.862L29.4814 171.496L21.1234 173.79L20.6846 172.191L22.1442 171.79C20.9386 171.573 20.1768 170.886 19.8588 169.727C19.808 169.542 19.776 169.357 19.7631 169.174Z" fill="#FF6719"/>
<path d="M24.1534 160.165C23.4155 160.266 22.7938 160.108 22.2883 159.692C21.7709 159.278 21.4049 158.686 21.1903 157.915L20.5336 155.64C20.4138 155.208 20.1694 155.017 19.8005 155.068C19.3482 155.13 19.0004 155.335 18.7571 155.683C18.5138 156.032 18.4345 156.516 18.5192 157.134C18.5974 157.706 18.8199 158.136 19.1869 158.425C19.5419 158.716 19.9854 158.856 20.5172 158.843L20.3621 160.501C19.5295 160.53 18.8117 160.247 18.2088 159.65C17.5939 159.055 17.2229 158.294 17.0959 157.366C16.9298 156.152 17.1044 155.212 17.6197 154.548C18.1231 153.885 18.833 153.491 19.7494 153.365L24.0519 152.776C24.5636 152.706 25.0289 152.606 25.4475 152.476L25.6723 154.119C25.3234 154.227 24.9406 154.31 24.5241 154.367C24.9375 154.553 25.3188 154.858 25.6679 155.283C26.0155 155.696 26.2365 156.248 26.3309 156.939C26.4465 157.784 26.2911 158.508 25.8645 159.112C25.426 159.718 24.8556 160.068 24.1534 160.165ZM24.8888 156.899C24.7862 156.15 24.5016 155.576 24.0351 155.179C23.5686 154.782 22.8949 154.644 22.0142 154.765L21.6214 154.819L22.3733 157.389C22.4849 157.762 22.6633 158.047 22.9085 158.243C23.1537 158.44 23.4607 158.513 23.8297 158.463C24.1629 158.417 24.4374 158.252 24.6531 157.968C24.8673 157.672 24.9458 157.316 24.8888 156.899Z" fill="#FF6719"/>
<path d="M19.5434 140.843L24.5517 140.939L24.5193 142.632L15.8538 142.466L15.8856 140.808L17.1286 140.832C16.1428 140.237 15.6614 139.338 15.6845 138.137C15.7036 137.14 16.0365 136.384 16.6832 135.868C17.3301 135.339 18.158 135.085 19.1669 135.104L24.6616 135.21L24.6291 136.903L19.4226 136.803C17.9694 136.775 17.2299 137.434 17.2041 138.779C17.1918 139.416 17.4105 139.919 17.86 140.288C18.2977 140.644 18.8588 140.829 19.5434 140.843Z" fill="#FF6719"/>
<path d="M23.0184 125.538L22.7362 123.939C23.2082 123.956 23.6268 123.819 23.992 123.526C24.3453 123.232 24.5703 122.794 24.6667 122.214C24.7415 121.763 24.694 121.39 24.524 121.094C24.3421 120.796 24.0912 120.62 23.7713 120.567C23.2025 120.473 22.7741 120.779 22.4861 121.486L21.924 122.89C21.6715 123.53 21.3005 124.005 20.8109 124.313C20.3213 124.621 19.7743 124.725 19.17 124.625C18.4353 124.503 17.8505 124.101 17.4157 123.42C16.9828 122.727 16.8353 121.966 16.9731 121.136C17.0637 120.591 17.2274 120.119 17.4641 119.72C17.6891 119.319 17.9516 119.022 18.2517 118.828C18.5517 118.634 18.8242 118.497 19.069 118.416C19.3139 118.335 19.5597 118.284 19.8066 118.264L20.1125 119.831C19.9663 119.831 19.8232 119.85 19.683 119.888C19.5309 119.924 19.3611 119.993 19.1736 120.095C18.988 120.186 18.8281 120.343 18.6939 120.564C18.5479 120.783 18.4483 121.053 18.3951 121.373C18.3262 121.787 18.3817 122.15 18.5616 122.46C18.7434 122.758 18.9884 122.932 19.2965 122.984C19.8416 123.074 20.2394 122.805 20.4899 122.177L21.0224 120.841C21.3143 120.11 21.7189 119.581 22.2362 119.253C22.7435 118.911 23.3172 118.793 23.9571 118.899C24.6325 119.011 25.1965 119.391 25.6491 120.039C26.1036 120.675 26.2492 121.484 26.0858 122.468C25.9106 123.522 25.513 124.303 24.8932 124.809C24.2615 125.312 23.6366 125.556 23.0184 125.538Z" fill="#FF6719"/>
<path d="M22.5276 104.662L21.944 106.67L28.7958 108.662L28.3078 110.34L21.4561 108.348L21.0083 109.888L19.5376 109.46L19.9854 107.92L18.5839 107.513C17.6957 107.255 17.0733 106.792 16.7167 106.125C16.3601 105.459 16.2958 104.733 16.5238 103.949C16.668 103.453 16.8196 103.147 16.9786 103.03L18.432 103.453C18.3125 103.606 18.2091 103.832 18.1219 104.132C18.0179 104.49 18.037 104.833 18.179 105.162C18.3128 105.476 18.6393 105.709 19.1584 105.86L20.4733 106.242L21.0569 104.235L22.5276 104.662Z" fill="#FF6719"/>
<path d="M30.4544 97.1312C31.1626 96.8667 31.67 96.3884 31.9763 95.6964C32.2827 95.0044 32.2933 94.3128 32.0081 93.6217C31.7168 92.9147 31.1263 92.3642 30.2365 91.9703C29.3578 91.5813 28.5643 91.519 27.856 91.7835C27.1416 92.0321 26.6313 92.5025 26.3249 93.1945C26.0185 93.8865 26.011 94.586 26.3023 95.293C26.5875 95.9841 27.1695 96.5242 28.0482 96.9133C28.938 97.3072 29.74 97.3798 30.4544 97.1312ZM24.8526 96.0306C24.3911 94.9067 24.4206 93.7571 24.9409 92.5818C25.4612 91.4064 26.2901 90.6173 27.4275 90.2144C28.5587 89.7956 29.7285 89.8537 30.9368 90.3886C32.156 90.9284 32.9988 91.7547 33.4651 92.8676C33.9205 93.9757 33.8855 95.1229 33.3603 96.3092C32.8351 97.4955 32.0093 98.2925 30.8829 98.7003C29.7455 99.1032 28.5672 99.0348 27.348 98.495C26.1397 97.9601 25.3079 97.1386 24.8526 96.0306Z" fill="#FF6719"/>
<path d="M34.4696 74.7562L36.0015 75.7049C35.8381 75.9004 35.6931 76.1003 35.5666 76.3045C34.7317 77.6526 35.0701 78.7947 36.5816 79.7307L40.2735 82.0171L39.3817 83.4571L32.0132 78.8938L32.886 77.4845L34.1728 78.2814C33.5115 77.2501 33.4971 76.2239 34.1296 75.2026C34.2308 75.0392 34.3441 74.8904 34.4696 74.7562Z" fill="#FF6719"/>
<path d="M47.2131 71.2802L46.0992 72.5322L39.624 66.7711L40.702 65.5596L41.5635 66.3261C41.3982 65.8252 41.3854 65.3155 41.5253 64.7968C41.6652 64.2781 41.9109 63.8213 42.2622 63.4264C42.6375 63.0046 43.084 62.7105 43.6019 62.5442C44.1197 62.3778 44.6564 62.389 45.212 62.5778C44.7945 61.4025 45.0289 60.3167 45.9153 59.3205C46.4662 58.7013 47.1442 58.3639 47.9493 58.3084C48.7624 58.2439 49.5683 58.567 50.367 59.2777L54.5672 63.0146L53.4533 64.2666L49.3878 60.6494C48.939 60.2502 48.4762 60.0475 47.9994 60.0413C47.5305 60.0261 47.0925 60.2473 46.6853 60.705C46.294 61.1448 46.1317 61.6435 46.1982 62.2012C46.2559 62.7509 46.518 63.2334 46.9847 63.6486L50.9021 67.134L49.7762 68.3994L45.7107 64.7822C45.262 64.383 44.7992 64.1803 44.3224 64.1741C43.8535 64.1589 43.4155 64.3802 43.0082 64.8379C42.609 65.2866 42.4382 65.7858 42.4958 66.3355C42.5534 66.8852 42.8245 67.3757 43.3091 67.8068L47.2131 71.2802Z" fill="#FF6719"/>
<path d="M61.9699 52.5833C61.5182 51.9912 61.3485 51.3727 61.461 50.7279C61.5661 50.0735 61.9011 49.4629 62.4659 48.8961L64.1206 47.2031C64.4376 46.8858 64.4831 46.5791 64.2573 46.283C63.9804 45.9201 63.6304 45.7187 63.2072 45.679C62.784 45.6392 62.3241 45.8087 61.8275 46.1876C61.369 46.5373 61.1045 46.9431 61.0338 47.405C60.9558 47.8573 61.0532 48.3118 61.326 48.7685L59.8072 49.4512C59.3713 48.7412 59.2641 47.9769 59.4857 47.1582C59.6999 46.3299 60.1795 45.6316 60.9245 45.0633C61.8987 44.3202 62.8019 44.0089 63.6342 44.1294C64.4592 44.2404 65.1522 44.6636 65.7132 45.399L68.3471 48.8516C68.6604 49.2623 68.9768 49.6177 69.2964 49.9178L67.9784 50.9232C67.7121 50.6731 67.4514 50.381 67.1964 50.0467C67.2385 50.498 67.1608 50.9804 66.9632 51.4938C66.7751 51.9998 66.4041 52.4642 65.8502 52.8868C65.172 53.4041 64.4651 53.6261 63.7293 53.5528C62.9862 53.47 62.3997 53.1468 61.9699 52.5833ZM65.173 51.6129C65.7747 51.1539 66.1332 50.6236 66.2484 50.022C66.3636 49.4204 66.1516 48.7662 65.6125 48.0595L65.372 47.7443L63.5065 49.666C63.2373 49.9469 63.0776 50.2426 63.0272 50.5529C62.9769 50.8632 63.0647 51.1665 63.2905 51.4625C63.4946 51.73 63.7733 51.8874 64.1269 51.935C64.49 51.9753 64.8387 51.8679 65.173 51.6129Z" fill="#FF6719"/>
<path d="M78.9413 43.1657L77.4395 43.9092L73.5943 36.1417L75.0477 35.4223L75.5593 36.4558C75.5937 35.9294 75.7728 35.452 76.0969 35.0235C76.4209 34.595 76.8198 34.2635 77.2935 34.029C77.7995 33.7786 78.3237 33.6732 78.8661 33.713C79.4085 33.7527 79.9019 33.9642 80.3463 34.3474C80.3996 33.1013 81.0238 32.1824 82.2188 31.5909C82.9616 31.2231 83.7166 31.1643 84.4839 31.4145C85.2619 31.6594 85.888 32.2609 86.3623 33.219L88.8565 38.2573L87.3547 39.0008L84.9405 34.1239C84.674 33.5857 84.3209 33.2243 83.8811 33.0399C83.4521 32.8502 82.963 32.8912 82.414 33.163C81.8864 33.4241 81.5491 33.8257 81.4019 34.3677C81.2493 34.899 81.3116 35.4445 81.5888 36.0043L83.915 40.7035L82.3971 41.455L79.9829 36.5781C79.7164 36.0398 79.3633 35.6785 78.9235 35.4941C78.4945 35.3044 78.0054 35.3454 77.4564 35.6172C76.9181 35.8837 76.5727 36.2825 76.4201 36.8138C76.2676 37.345 76.3352 37.9013 76.623 38.4826L78.9413 43.1657Z" fill="#FF6719"/>
<path d="M109.584 25.6397L114.243 24.7715C114.101 24.1382 113.791 23.6582 113.315 23.3315C112.836 22.993 112.231 22.892 111.499 23.0284C110.837 23.1517 110.335 23.4714 109.991 23.9876C109.645 24.4919 109.51 25.0427 109.584 25.6397ZM114.904 26.9395L116.431 27.1681C116.33 28.0055 115.991 28.7409 115.412 29.3741C114.832 29.9955 114.063 30.3954 113.107 30.5737C111.914 30.796 110.822 30.5778 109.832 29.9192C108.851 29.2467 108.231 28.2136 107.971 26.8201C107.729 25.5211 107.93 24.3716 108.575 23.3717C109.22 22.3718 110.097 21.7684 111.207 21.5615C112.494 21.3216 113.574 21.5419 114.446 22.2225C115.316 22.8913 115.878 23.9047 116.131 25.2628C116.17 25.4754 116.192 25.6547 116.194 25.8008L109.782 26.9959C109.935 27.7495 110.298 28.3232 110.873 28.7172C111.459 29.1089 112.112 29.2377 112.833 29.1034C114.049 28.8767 114.739 28.1554 114.904 26.9395Z" fill="white"/>
<path d="M134.685 25.6795L136.237 25.2017C136.278 25.6723 136.466 26.0707 136.802 26.3969C137.137 26.7112 137.599 26.8803 138.188 26.9042C138.644 26.9228 139.008 26.8295 139.281 26.6242C139.554 26.4069 139.698 26.1362 139.711 25.8121C139.734 25.236 139.377 24.8488 138.64 24.6504L137.177 24.2662C136.511 24.0948 135.994 23.7852 135.628 23.3374C135.261 22.8897 135.091 22.3597 135.116 21.7476C135.146 21.0034 135.472 20.3735 136.094 19.8579C136.728 19.3427 137.466 19.1022 138.306 19.1365C138.858 19.159 139.347 19.263 139.772 19.4487C140.198 19.6223 140.525 19.8461 140.754 20.1199C140.984 20.3938 141.154 20.6471 141.264 20.8801C141.375 21.113 141.456 21.3507 141.506 21.5932L139.989 22.0905C139.971 21.9455 139.934 21.8057 139.88 21.6712C139.825 21.5248 139.736 21.3648 139.611 21.1914C139.497 21.0185 139.323 20.8791 139.087 20.7733C138.851 20.6555 138.571 20.59 138.247 20.5768C137.827 20.5597 137.474 20.6595 137.189 20.8763C136.916 21.0936 136.773 21.3583 136.76 21.6703C136.737 22.2225 137.053 22.584 137.707 22.7549L139.099 23.1182C139.861 23.3176 140.436 23.6536 140.826 24.1263C141.228 24.5875 141.415 25.1422 141.389 25.7904C141.361 26.4745 141.054 27.0812 140.467 27.6103C139.893 28.1399 139.107 28.3844 138.111 28.3438C137.043 28.3003 136.219 28.0022 135.641 27.4497C135.062 26.8851 134.744 26.295 134.685 25.6795Z" fill="white"/>
<path d="M152.091 23.9446L156.75 24.8129C156.845 24.1708 156.73 23.6116 156.403 23.1352C156.078 22.6471 155.55 22.3348 154.818 22.1983C154.157 22.0751 153.573 22.1923 153.066 22.55C152.562 22.8959 152.237 23.3608 152.091 23.9446ZM156.585 27.0733L157.928 27.8367C157.532 28.5817 156.951 29.1454 156.183 29.5278C155.417 29.8983 154.556 29.9944 153.6 29.8162C152.407 29.5939 151.467 28.9972 150.781 28.0261C150.108 27.0454 149.902 25.8583 150.161 24.4648C150.404 23.1658 151.005 22.1659 151.967 21.4653C152.928 20.7647 153.964 20.5179 155.074 20.7248C156.361 20.9647 157.289 21.5591 157.858 22.5082C158.428 23.4455 158.587 24.5932 158.334 25.9513C158.295 26.1638 158.25 26.3388 158.2 26.4761L151.787 25.281C151.658 26.039 151.791 26.7052 152.185 27.2796C152.59 27.8562 153.153 28.2117 153.874 28.3459C155.09 28.5726 155.994 28.1484 156.585 27.0733Z" fill="white"/>
<path d="M181.774 25.7929L180.713 28.3181L182.441 29.0437L181.848 30.4559L180.12 29.7303L178.376 33.8836C178.218 34.2601 178.184 34.5719 178.276 34.8189C178.379 35.0705 178.63 35.2801 179.028 35.4475C179.261 35.5452 179.475 35.6091 179.671 35.6392L179.113 36.9683C178.805 36.9563 178.43 36.8573 177.987 36.6713C177.3 36.3829 176.841 35.9556 176.61 35.3894C176.379 34.8233 176.414 34.1802 176.716 33.4603L178.558 29.0744L177.03 28.4325L177.623 27.0204L178.055 27.2018C178.465 27.3739 178.816 27.3911 179.108 27.2533C179.416 27.1091 179.647 26.8542 179.801 26.4887L180.345 25.1929L181.774 25.7929Z" fill="white"/>
<path d="M194.714 35.0516L193.837 36.6258C193.634 36.4715 193.428 36.336 193.218 36.2191C191.833 35.4476 190.708 35.8384 189.843 37.3916L187.73 41.1855L186.25 40.3613L190.467 32.7894L191.915 33.596L191.179 34.9183C192.178 34.21 193.203 34.1481 194.252 34.7326C194.42 34.8261 194.574 34.9324 194.714 35.0516Z" fill="white"/>
<path d="M198.07 44.4954C198.515 43.8981 199.063 43.5646 199.714 43.4951C200.372 43.4159 201.051 43.5698 201.751 43.9566L203.835 45.0809C204.227 45.2982 204.534 45.2575 204.757 44.9588C205.029 44.5927 205.127 44.2008 205.048 43.783C204.97 43.3652 204.68 42.9698 204.179 42.5967C203.717 42.2524 203.254 42.1098 202.79 42.1691C202.334 42.2187 201.924 42.4376 201.56 42.8256L200.485 41.5536C201.048 40.939 201.753 40.6254 202.601 40.6129C203.456 40.5907 204.26 40.8594 205.011 41.419C205.994 42.1508 206.542 42.9333 206.655 43.7666C206.776 44.5903 206.56 45.373 206.008 46.1149L203.414 49.5979C203.106 50.0123 202.851 50.4144 202.651 50.8043L201.321 49.8142C201.488 49.4893 201.697 49.1582 201.948 48.821C201.526 48.9858 201.041 49.044 200.493 48.9954C199.955 48.954 199.406 48.7253 198.847 48.3092C198.163 47.7998 197.755 47.1814 197.623 46.4538C197.498 45.7167 197.647 45.0639 198.07 44.4954ZM199.885 47.3073C200.492 47.7593 201.101 47.9578 201.711 47.9028C202.321 47.8479 202.891 47.4639 203.422 46.7509L203.659 46.433L201.298 45.169C200.954 44.9876 200.625 44.9154 200.313 44.9526C200.001 44.9897 199.734 45.1576 199.511 45.4563C199.31 45.726 199.236 46.0374 199.288 46.3904C199.349 46.7506 199.548 47.0562 199.885 47.3073Z" fill="white"/>
<path d="M215.089 54.739L211.513 58.2462L210.327 57.0368L216.515 50.9687L217.676 52.1523L216.788 53.0228C217.904 52.7364 218.882 53.0221 219.723 53.8798C220.421 54.5917 220.728 55.3592 220.643 56.1824C220.567 57.0141 220.169 57.7832 219.449 58.4897L215.525 62.3375L214.339 61.1281L218.057 57.4822C219.095 56.4645 219.143 55.4753 218.201 54.5147C217.755 54.0601 217.243 53.864 216.665 53.9263C216.103 53.9887 215.578 54.2596 215.089 54.739Z" fill="white"/>
<path d="M223.577 67.9392L224.917 68.8581C224.573 69.1827 224.378 69.5777 224.331 70.0432C224.294 70.5017 224.449 70.9687 224.796 71.4442C225.064 71.813 225.364 72.0405 225.695 72.1266C226.035 72.2057 226.336 72.1496 226.598 71.9585C227.064 71.6187 227.145 71.0984 226.842 70.3976L226.234 69.0127C225.954 68.3842 225.875 67.7873 225.998 67.2219C226.121 66.6565 226.43 66.1933 226.925 65.8323C227.527 65.3934 228.223 65.2574 229.014 65.4241C229.811 65.6006 230.458 66.0285 230.953 66.7079C231.279 67.1544 231.501 67.6019 231.62 68.0504C231.749 68.4918 231.777 68.8874 231.705 69.2372C231.633 69.5871 231.54 69.8778 231.427 70.1093C231.313 70.3409 231.177 70.5517 231.018 70.7418L229.686 69.8626C229.788 69.7582 229.875 69.6429 229.946 69.5165C230.027 69.383 230.097 69.2133 230.155 69.0075C230.22 68.8113 230.221 68.5879 230.157 68.3371C230.102 68.0793 229.98 67.8194 229.789 67.5573C229.541 67.2176 229.243 67.0034 228.896 66.9147C228.556 66.8356 228.26 66.8881 228.008 67.0722C227.561 67.3978 227.474 67.87 227.747 68.4887L228.328 69.8048C228.645 70.525 228.739 71.1846 228.611 71.7836C228.5 72.3852 228.182 72.8771 227.658 73.2593C227.105 73.6628 226.439 73.7993 225.66 73.6687C224.888 73.5479 224.208 73.0846 223.62 72.2791C222.99 71.4153 222.712 70.585 222.785 69.7883C222.868 68.9845 223.132 68.3681 223.577 67.9392Z" fill="white"/>
<path d="M238.821 82.2113L237.797 80.389L231.576 83.8837L230.72 82.3598L236.941 78.8651L236.155 77.467L237.491 76.7168L238.276 78.115L239.549 77.4002C240.355 76.9472 241.121 76.8269 241.847 77.0393C242.572 77.2518 243.135 77.7141 243.535 78.4262C243.788 78.8766 243.901 79.1993 243.872 79.3942L242.553 80.1355C242.527 79.9431 242.438 79.7108 242.285 79.4385C242.103 79.1138 241.844 78.8869 241.51 78.7578C241.192 78.6333 240.798 78.7034 240.326 78.9682L239.132 79.6389L240.156 81.4612L238.821 82.2113Z" fill="white"/>
<path d="M238.642 93.1446C238.335 93.8353 238.321 94.5324 238.6 95.2357C238.879 95.9391 239.366 96.4311 240.059 96.7117C240.767 96.999 241.574 96.9631 242.478 96.604C243.371 96.2493 243.972 95.7266 244.279 95.0359C244.602 94.3519 244.624 93.6582 244.344 92.9548C244.065 92.2514 243.571 91.7561 242.862 91.4688C242.169 91.1882 241.376 91.2253 240.483 91.5799C239.579 91.939 238.965 92.4606 238.642 93.1446ZM243.352 89.9175C244.477 90.3754 245.277 91.2016 245.751 92.3962C246.225 93.5908 246.208 94.7351 245.699 95.8291C245.205 96.9298 244.345 97.724 243.117 98.2117C241.877 98.7038 240.697 98.7265 239.576 98.2797C238.466 97.8286 237.672 97.0001 237.193 95.7943C236.715 94.5885 236.724 93.4409 237.222 92.3513C237.731 91.2573 238.606 90.4643 239.845 89.9722C241.073 89.4846 242.242 89.4663 243.352 89.9175Z" fill="white"/>
<path d="M251.799 111.682L250.049 112.111C250.024 111.857 249.983 111.613 249.926 111.38C249.549 109.84 248.497 109.281 246.77 109.705L242.552 110.738L242.149 109.093L250.567 107.03L250.962 108.64L249.491 109.001C250.691 109.251 251.433 109.96 251.719 111.126C251.765 111.313 251.792 111.498 251.799 111.682Z" fill="white"/>
<path d="M245.353 123.212L245.24 121.54L253.887 120.954L253.997 122.572L252.846 122.65C253.319 122.883 253.692 123.231 253.964 123.694C254.236 124.157 254.39 124.652 254.426 125.179C254.464 125.743 254.361 126.267 254.117 126.754C253.873 127.24 253.49 127.615 252.966 127.879C254.097 128.404 254.708 129.332 254.798 130.663C254.854 131.49 254.62 132.21 254.095 132.823C253.572 133.449 252.777 133.798 251.71 133.87L246.101 134.25L245.988 132.578L251.417 132.21C252.016 132.169 252.485 131.981 252.824 131.645C253.163 131.321 253.312 130.854 253.27 130.242C253.23 129.655 252.988 129.19 252.544 128.847C252.111 128.503 251.583 128.352 250.96 128.394L245.728 128.749L245.614 127.059L251.043 126.691C251.642 126.65 252.111 126.462 252.45 126.126C252.789 125.802 252.938 125.334 252.896 124.723C252.856 124.124 252.619 123.652 252.186 123.308C251.754 122.965 251.214 122.815 250.567 122.858L245.353 123.212Z" fill="white"/>
<path d="M248.362 146.841C249.101 146.933 249.661 147.245 250.043 147.777C250.436 148.31 250.637 148.977 250.646 149.777L250.695 152.144C250.7 152.593 250.887 152.84 251.256 152.886C251.709 152.943 252.098 152.834 252.423 152.56C252.748 152.286 252.949 151.839 253.026 151.219C253.098 150.647 252.994 150.174 252.713 149.8C252.445 149.427 252.053 149.178 251.536 149.053L252.112 147.491C252.924 147.677 253.545 148.136 253.974 148.868C254.415 149.601 254.577 150.432 254.461 151.362C254.309 152.578 253.899 153.44 253.23 153.95C252.573 154.461 251.785 154.659 250.867 154.544L246.558 154.006C246.046 153.942 245.571 153.919 245.132 153.937L245.338 152.292C245.703 152.277 246.094 152.295 246.511 152.348C246.16 152.061 245.87 151.668 245.642 151.167C245.413 150.679 245.341 150.089 245.427 149.397C245.533 148.551 245.87 147.891 246.438 147.417C247.017 146.945 247.659 146.753 248.362 146.841ZM246.811 149.806C246.717 150.557 246.844 151.185 247.193 151.688C247.542 152.192 248.157 152.499 249.039 152.609L249.433 152.658L249.368 149.981C249.356 149.592 249.257 149.271 249.07 149.017C248.884 148.764 248.606 148.614 248.237 148.568C247.903 148.526 247.595 148.615 247.314 148.834C247.031 149.065 246.863 149.389 246.811 149.806Z" fill="white"/>
<path d="M243.195 165.55L243.717 163.957L251.954 166.653L251.449 168.195L250.353 167.836C250.705 168.229 250.92 168.691 250.999 169.223C251.078 169.754 251.035 170.271 250.87 170.773C250.695 171.31 250.403 171.758 249.994 172.117C249.586 172.476 249.09 172.68 248.505 172.729C249.357 173.64 249.575 174.729 249.161 175.996C248.903 176.784 248.416 177.364 247.7 177.736C246.98 178.12 246.112 178.146 245.096 177.813L239.753 176.064L240.275 174.472L245.446 176.165C246.017 176.351 246.522 176.352 246.962 176.168C247.398 175.994 247.711 175.617 247.902 175.034C248.085 174.475 248.035 173.953 247.751 173.468C247.479 172.987 247.046 172.65 246.452 172.455L241.469 170.824L241.996 169.214L247.167 170.907C247.738 171.094 248.243 171.095 248.683 170.91C249.119 170.737 249.432 170.359 249.623 169.777C249.81 169.206 249.767 168.68 249.495 168.2C249.222 167.719 248.778 167.377 248.161 167.175L243.195 165.55Z" fill="white"/>
<defs>
<linearGradient id="paint0_linear_1265_27" x1="231" y1="3.85746e-06" x2="122" y2="288" gradientUnits="userSpaceOnUse">
<stop stop-color="#4D4D4D"/>
<stop offset="1" stop-color="#1A1A1A"/>
</linearGradient>
</defs>
</svg>
