<svg width="12" height="10" viewBox="0 0 12 10" fill="none" xmlns="http://www.w3.org/2000/svg">
<path d="M11.2585 0.991472C11.4929 1.22588 11.6245 1.54377 11.6245 1.87522C11.6245 2.20668 11.4929 2.52456 11.2585 2.75897L5.00853 9.00897C4.77412 9.24331 4.45623 9.37495 4.12478 9.37495C3.79332 9.37495 3.47544 9.24331 3.24103 9.00897L0.741026 6.50897C0.513329 6.27322 0.387336 5.95747 0.390184 5.62972C0.393032 5.30197 0.524493 4.98846 0.756253 4.7567C0.988014 4.52494 1.30153 4.39348 1.62927 4.39063C1.95702 4.38778 2.27277 4.51377 2.50853 4.74147L4.12478 6.35772L9.49103 0.991472C9.72544 0.757133 10.0433 0.625488 10.3748 0.625488C10.7062 0.625488 11.0241 0.757133 11.2585 0.991472Z" fill="white"/>
</svg>
