<svg width="16" height="16" viewBox="0 0 16 16" fill="none" xmlns="http://www.w3.org/2000/svg">
<path d="M8.00116 10.4311L7.64761 10.0775L3.45233 5.88227C3.45231 5.88225 3.45229 5.88223 3.45227 5.88221C3.42102 5.851 3.37866 5.83347 3.33449 5.83347C3.29035 5.83347 3.24801 5.85098 3.21677 5.88216C3.18552 5.91341 3.16797 5.9558 3.16797 5.99999C3.16797 6.04416 3.1855 6.08652 3.21671 6.11777L8.00116 10.4311ZM8.00116 10.4311L8.35471 10.0775L12.55 5.88221L12.5501 5.88227L12.5561 5.87602C12.5715 5.8601 12.5899 5.8474 12.6102 5.83867C12.6306 5.82993 12.6524 5.82533 12.6746 5.82514C12.6967 5.82495 12.7186 5.82916 12.7391 5.83755C12.7596 5.84593 12.7782 5.8583 12.7939 5.87395L13.1474 5.5204L12.7939 5.87395C12.8095 5.8896 12.8219 5.90821 12.8303 5.92869C12.8387 5.94917 12.8429 5.97112 12.8427 5.99325C12.8425 6.01538 12.8379 6.03725 12.8292 6.05759C12.8204 6.07792 12.8077 6.09631 12.7918 6.11168L12.7918 6.11163L12.7856 6.11777L8.11899 10.7844C8.11898 10.7844 8.11896 10.7844 8.11894 10.7844C8.08769 10.8157 8.04533 10.8332 8.00116 10.8332C7.95699 10.8332 7.91463 10.8157 7.88338 10.7844C7.88336 10.7844 7.88334 10.7844 7.88333 10.7844L3.21677 6.11783L8.00116 10.4311Z" fill="#999999" stroke="#999999"/>
</svg>
