<svg width="406" height="358" viewBox="0 0 406 358" fill="none" xmlns="http://www.w3.org/2000/svg">
<path d="M295.921 162.742C297.321 191.02 307.132 217.652 325.406 242.66C344.223 267.516 367.919 283.005 396.525 289.205L397.707 289.462V290.671V353.94V355.658L396.005 355.427C349.419 349.091 307.455 326.009 270.125 286.314C232.653 246.468 214.016 190.413 214.016 118.363C214.016 81.3166 223.595 52.623 242.966 32.5152C262.276 12.4702 286.218 2.44043 314.692 2.44043C340.402 2.44043 362.063 10.6419 379.571 27.0768C396.178 42.6182 404.5 61.8614 404.5 84.7097C404.5 110.169 396.687 130.769 380.96 146.352L380.944 146.368L380.927 146.384C365.218 161.033 345.365 168.325 321.485 168.325C311.558 168.325 303.016 166.487 295.921 162.742ZM83.4125 162.892C84.8407 191.115 94.6485 217.696 112.89 242.661C131.707 267.516 155.403 283.005 184.009 289.205L185.191 289.462V290.671V353.94V355.658L183.489 355.427C136.903 349.091 94.9391 326.009 57.6092 286.314C20.1372 246.468 1.5 190.413 1.5 118.363C1.5 81.3166 11.0789 52.623 30.45 32.5152C49.7605 12.4702 73.7027 2.44043 102.177 2.44043C127.887 2.44043 149.548 10.6421 167.057 27.0776C183.663 42.6189 191.984 61.8618 191.984 84.7097C191.984 110.169 184.171 130.769 168.444 146.352L168.428 146.368L168.412 146.384C152.703 161.033 132.849 168.325 108.969 168.325C98.4427 168.325 89.8795 166.56 83.4125 162.892Z" stroke="white" stroke-width="3"/>
</svg>
