<svg width="28" height="28" viewBox="0 0 28 28" fill="none" xmlns="http://www.w3.org/2000/svg">
<path fill-rule="evenodd" clip-rule="evenodd" d="M14.3418 5.00824C14.5606 4.78952 14.8573 4.66666 15.1667 4.66666C15.476 4.66666 15.7727 4.78952 15.9915 5.00824L24.1582 13.1749C24.3769 13.3937 24.4998 13.6904 24.4998 13.9997C24.4998 14.3091 24.3769 14.6058 24.1582 14.8246L15.9915 22.9912C15.7715 23.2038 15.4768 23.3214 15.1709 23.3187C14.865 23.316 14.5724 23.1933 14.356 22.977C14.1397 22.7607 14.017 22.4681 14.0144 22.1622C14.0117 21.8563 14.1293 21.5616 14.3418 21.3416L20.517 15.1664H4.66667C4.35725 15.1664 4.0605 15.0435 3.84171 14.8247C3.62292 14.6059 3.5 14.3092 3.5 13.9997C3.5 13.6903 3.62292 13.3936 3.84171 13.1748C4.0605 12.956 4.35725 12.8331 4.66667 12.8331H20.517L14.3418 6.65791C14.1231 6.43912 14.0002 6.14243 14.0002 5.83307C14.0002 5.52372 14.1231 5.22702 14.3418 5.00824Z" fill="white"/>
</svg>
